<svg xmlns="http://www.w3.org/2000/svg" xmlns:xlink="http://www.w3.org/1999/xlink" width="500" zoomAndPan="magnify" viewBox="0 0 375 374.999991" height="500" preserveAspectRatio="xMidYMid meet" version="1.0"><path fill="#ffffff" d="M 341.183594 0 L 63.164062 0 C 62.742188 0 62.320312 0.0429688 61.90625 0.125 C 61.488281 0.207031 61.082031 0.328125 60.691406 0.492188 C 60.300781 0.65625 59.925781 0.855469 59.574219 1.089844 C 59.222656 1.324219 58.894531 1.59375 58.59375 1.894531 C 58.292969 2.195312 58.027344 2.519531 57.789062 2.875 C 57.554688 3.226562 57.355469 3.597656 57.191406 3.992188 C 57.03125 4.382812 56.90625 4.789062 56.824219 5.203125 C 56.742188 5.621094 56.699219 6.039062 56.699219 6.464844 L 56.699219 28.382812 L 35.753906 28.382812 C 35.328125 28.382812 34.90625 28.425781 34.492188 28.507812 C 34.074219 28.589844 33.671875 28.714844 33.277344 28.875 C 32.886719 29.039062 32.511719 29.238281 32.160156 29.472656 C 31.808594 29.710938 31.480469 29.976562 31.179688 30.277344 C 30.878906 30.578125 30.613281 30.902344 30.375 31.257812 C 30.140625 31.609375 29.941406 31.984375 29.777344 32.375 C 29.617188 32.765625 29.492188 33.171875 29.410156 33.585938 C 29.328125 34.003906 29.285156 34.425781 29.285156 34.847656 L 29.285156 74.613281 L 25.535156 74.613281 C 24.851562 74.609375 24.171875 74.640625 23.492188 74.707031 C 22.8125 74.769531 22.136719 74.867188 21.464844 75 C 20.792969 75.128906 20.128906 75.292969 19.476562 75.488281 C 18.820312 75.683594 18.175781 75.910156 17.542969 76.167969 C 16.914062 76.429688 16.292969 76.71875 15.691406 77.035156 C 15.085938 77.355469 14.496094 77.703125 13.925781 78.078125 C 13.355469 78.457031 12.808594 78.859375 12.277344 79.289062 C 11.746094 79.71875 11.238281 80.175781 10.75 80.65625 C 10.265625 81.136719 9.800781 81.640625 9.367188 82.164062 C 8.929688 82.691406 8.519531 83.234375 8.132812 83.800781 C 7.75 84.367188 7.394531 84.949219 7.070312 85.550781 C 6.742188 86.148438 6.445312 86.765625 6.179688 87.394531 C 5.914062 88.023438 5.679688 88.664062 5.476562 89.316406 C 5.269531 89.96875 5.101562 90.628906 4.960938 91.300781 C 4.820312 91.96875 4.714844 92.644531 4.644531 93.320312 C 4.570312 94 4.53125 94.683594 4.523438 95.367188 L 4.523438 354.246094 C 4.53125 354.929688 4.570312 355.609375 4.644531 356.289062 C 4.714844 356.96875 4.820312 357.644531 4.960938 358.3125 C 5.101562 358.980469 5.269531 359.644531 5.476562 360.296875 C 5.679688 360.949219 5.914062 361.589844 6.179688 362.21875 C 6.445312 362.847656 6.742188 363.460938 7.070312 364.0625 C 7.394531 364.664062 7.75 365.246094 8.132812 365.8125 C 8.519531 366.375 8.929688 366.921875 9.367188 367.449219 C 9.800781 367.972656 10.265625 368.476562 10.75 368.957031 C 11.238281 369.4375 11.746094 369.890625 12.277344 370.320312 C 12.808594 370.753906 13.355469 371.15625 13.925781 371.53125 C 14.496094 371.910156 15.085938 372.257812 15.691406 372.574219 C 16.292969 372.894531 16.914062 373.183594 17.542969 373.441406 C 18.175781 373.703125 18.820312 373.929688 19.476562 374.125 C 20.128906 374.320312 20.792969 374.484375 21.464844 374.613281 C 22.136719 374.742188 22.8125 374.839844 23.492188 374.90625 C 24.171875 374.972656 24.851562 375.003906 25.535156 375 L 348.8125 375 C 349.496094 375.003906 350.179688 374.972656 350.859375 374.90625 C 351.539062 374.839844 352.214844 374.742188 352.886719 374.613281 C 353.554688 374.484375 354.21875 374.320312 354.875 374.125 C 355.527344 373.929688 356.171875 373.703125 356.804688 373.441406 C 357.4375 373.183594 358.054688 372.894531 358.660156 372.574219 C 359.265625 372.257812 359.851562 371.910156 360.421875 371.53125 C 360.992188 371.15625 361.542969 370.753906 362.074219 370.320312 C 362.605469 369.890625 363.113281 369.4375 363.597656 368.957031 C 364.085938 368.476562 364.546875 367.972656 364.984375 367.449219 C 365.421875 366.921875 365.832031 366.375 366.214844 365.8125 C 366.597656 365.246094 366.953125 364.664062 367.28125 364.0625 C 367.605469 363.460938 367.902344 362.847656 368.167969 362.21875 C 368.4375 361.589844 368.671875 360.949219 368.875 360.296875 C 369.078125 359.644531 369.25 358.980469 369.386719 358.3125 C 369.527344 357.644531 369.632812 356.96875 369.707031 356.289062 C 369.78125 355.609375 369.820312 354.929688 369.824219 354.246094 L 369.824219 173.210938 C 369.8125 171.945312 369.6875 170.6875 369.449219 169.445312 C 369.210938 168.199219 368.863281 166.988281 368.402344 165.808594 C 367.945312 164.625 367.382812 163.496094 366.71875 162.417969 C 366.054688 161.339844 365.296875 160.328125 364.449219 159.386719 C 363.605469 158.445312 362.679688 157.585938 361.675781 156.8125 C 360.671875 156.039062 359.609375 155.363281 358.480469 154.78125 C 357.355469 154.199219 356.1875 153.726562 354.976562 153.355469 C 353.761719 152.988281 352.527344 152.730469 351.269531 152.585938 L 347.195312 152.199219 L 347.195312 6.464844 C 347.195312 6.058594 347.160156 5.65625 347.085938 5.257812 C 347.011719 4.859375 346.898438 4.46875 346.75 4.089844 C 346.601562 3.714844 346.421875 3.351562 346.203125 3.007812 C 345.988281 2.664062 345.742188 2.34375 345.464844 2.046875 C 345.1875 1.75 344.886719 1.480469 344.558594 1.238281 C 344.230469 1 343.886719 0.792969 343.519531 0.617188 C 343.152344 0.441406 342.773438 0.300781 342.378906 0.199219 C 341.988281 0.09375 341.589844 0.0273438 341.183594 0 Z M 69.632812 12.476562 L 334.976562 12.476562 L 334.976562 150.648438 L 320.234375 149.09375 L 320.234375 34.65625 C 320.234375 34.230469 320.195312 33.808594 320.109375 33.394531 C 320.027344 32.976562 319.90625 32.574219 319.742188 32.179688 C 319.582031 31.789062 319.382812 31.417969 319.144531 31.0625 C 318.910156 30.710938 318.640625 30.382812 318.339844 30.082031 C 318.039062 29.78125 317.714844 29.515625 317.363281 29.277344 C 317.007812 29.042969 316.636719 28.84375 316.242188 28.683594 C 315.851562 28.519531 315.445312 28.398438 315.03125 28.3125 C 314.613281 28.230469 314.195312 28.191406 313.769531 28.191406 L 69.308594 28.191406 Z M 42.023438 40.925781 L 307.757812 40.925781 L 307.757812 147.800781 L 179.738281 134.222656 L 130.535156 76.617188 C 129.953125 75.914062 129.25 75.371094 128.425781 74.984375 C 127.597656 74.601562 126.726562 74.410156 125.816406 74.417969 L 41.765625 74.417969 Z M 350.105469 164.871094 C 350.605469 164.921875 351.101562 165.019531 351.585938 165.160156 C 352.070312 165.300781 352.535156 165.484375 352.988281 165.710938 C 353.4375 165.9375 353.863281 166.203125 354.265625 166.507812 C 354.667969 166.8125 355.039062 167.152344 355.378906 167.523438 C 355.71875 167.898438 356.023438 168.296875 356.289062 168.726562 C 356.554688 169.152344 356.78125 169.601562 356.964844 170.070312 C 357.152344 170.539062 357.292969 171.023438 357.386719 171.519531 C 357.484375 172.011719 357.535156 172.511719 357.539062 173.015625 L 357.539062 354.050781 C 357.546875 354.621094 357.492188 355.183594 357.382812 355.742188 C 357.273438 356.300781 357.109375 356.839844 356.890625 357.363281 C 356.671875 357.890625 356.402344 358.386719 356.082031 358.855469 C 355.761719 359.324219 355.398438 359.757812 354.988281 360.15625 C 354.582031 360.550781 354.136719 360.902344 353.660156 361.207031 C 353.179688 361.511719 352.675781 361.769531 352.144531 361.972656 C 351.613281 362.175781 351.066406 362.324219 350.507812 362.414062 C 349.945312 362.507812 349.378906 362.542969 348.8125 362.523438 L 25.535156 362.523438 C 24.988281 362.527344 24.441406 362.476562 23.902344 362.375 C 23.363281 362.273438 22.839844 362.117188 22.328125 361.914062 C 21.820312 361.707031 21.335938 361.453125 20.875 361.15625 C 20.417969 360.855469 19.988281 360.511719 19.597656 360.128906 C 19.203125 359.746094 18.851562 359.328125 18.542969 358.875 C 18.230469 358.421875 17.964844 357.941406 17.75 357.4375 C 17.53125 356.933594 17.367188 356.410156 17.25 355.875 C 17.136719 355.339844 17.074219 354.792969 17.066406 354.246094 L 17.066406 95.171875 C 17.074219 94.625 17.136719 94.082031 17.25 93.542969 C 17.367188 93.007812 17.53125 92.484375 17.75 91.980469 C 17.964844 91.476562 18.230469 90.996094 18.542969 90.542969 C 18.851562 90.09375 19.203125 89.671875 19.597656 89.289062 C 19.988281 88.90625 20.417969 88.5625 20.875 88.261719 C 21.335938 87.964844 21.820312 87.710938 22.328125 87.503906 C 22.839844 87.300781 23.363281 87.144531 23.902344 87.042969 C 24.441406 86.941406 24.988281 86.890625 25.535156 86.898438 L 123.164062 86.898438 L 172.109375 144.246094 C 172.617188 144.863281 173.222656 145.355469 173.929688 145.726562 C 174.636719 146.097656 175.386719 146.316406 176.183594 146.378906 L 313.964844 160.992188 L 340.988281 163.902344 Z M 350.105469 164.871094 " fill-opacity="1" fill-rule="nonzero"/><path fill="#ffffff" d="M 38.015625 297.414062 L 127.757812 297.414062 C 128.179688 297.414062 128.601562 297.371094 129.019531 297.289062 C 129.433594 297.207031 129.839844 297.085938 130.230469 296.921875 C 130.621094 296.757812 130.996094 296.558594 131.347656 296.324219 C 131.703125 296.089844 132.027344 295.820312 132.328125 295.519531 C 132.628906 295.21875 132.894531 294.894531 133.132812 294.539062 C 133.367188 294.1875 133.566406 293.816406 133.730469 293.421875 C 133.890625 293.03125 134.015625 292.625 134.097656 292.210938 C 134.179688 291.792969 134.222656 291.371094 134.222656 290.949219 L 134.222656 264.375 C 134.222656 263.949219 134.179688 263.53125 134.097656 263.113281 C 134.015625 262.695312 133.890625 262.292969 133.730469 261.902344 C 133.566406 261.507812 133.367188 261.136719 133.132812 260.78125 C 132.894531 260.429688 132.628906 260.101562 132.328125 259.804688 C 132.027344 259.503906 131.703125 259.234375 131.347656 259 C 130.996094 258.761719 130.621094 258.5625 130.230469 258.402344 C 129.839844 258.238281 129.433594 258.117188 129.019531 258.035156 C 128.601562 257.949219 128.179688 257.910156 127.757812 257.910156 L 38.015625 257.910156 C 37.589844 257.910156 37.171875 257.949219 36.753906 258.035156 C 36.335938 258.117188 35.933594 258.238281 35.539062 258.402344 C 35.148438 258.5625 34.777344 258.761719 34.421875 259 C 34.070312 259.234375 33.742188 259.503906 33.441406 259.804688 C 33.144531 260.101562 32.875 260.429688 32.640625 260.78125 C 32.402344 261.136719 32.203125 261.507812 32.042969 261.902344 C 31.878906 262.292969 31.757812 262.695312 31.671875 263.113281 C 31.589844 263.53125 31.550781 263.949219 31.550781 264.375 L 31.550781 290.949219 C 31.550781 291.371094 31.589844 291.792969 31.671875 292.210938 C 31.757812 292.625 31.878906 293.03125 32.042969 293.421875 C 32.203125 293.816406 32.402344 294.1875 32.640625 294.539062 C 32.875 294.894531 33.144531 295.21875 33.441406 295.519531 C 33.742188 295.820312 34.070312 296.089844 34.421875 296.324219 C 34.777344 296.558594 35.148438 296.757812 35.539062 296.921875 C 35.933594 297.085938 36.335938 297.207031 36.753906 297.289062 C 37.171875 297.371094 37.589844 297.414062 38.015625 297.414062 Z M 44.480469 270.515625 L 121.484375 270.515625 L 121.484375 284.871094 L 44.285156 284.871094 Z M 44.480469 270.515625 " fill-opacity="1" fill-rule="nonzero"/><path fill="#ffffff" d="M 174.890625 307.886719 L 38.015625 307.886719 C 37.589844 307.886719 37.171875 307.929688 36.753906 308.011719 C 36.335938 308.09375 35.933594 308.21875 35.539062 308.378906 C 35.148438 308.542969 34.777344 308.742188 34.421875 308.976562 C 34.070312 309.214844 33.742188 309.480469 33.441406 309.78125 C 33.144531 310.082031 32.875 310.410156 32.640625 310.761719 C 32.402344 311.113281 32.203125 311.488281 32.042969 311.878906 C 31.878906 312.269531 31.757812 312.675781 31.671875 313.09375 C 31.589844 313.507812 31.550781 313.929688 31.550781 314.351562 L 31.550781 341.25 C 31.550781 341.675781 31.589844 342.09375 31.671875 342.511719 C 31.757812 342.925781 31.878906 343.332031 32.042969 343.722656 C 32.203125 344.117188 32.402344 344.488281 32.640625 344.84375 C 32.875 345.195312 33.144531 345.523438 33.441406 345.820312 C 33.742188 346.121094 34.070312 346.390625 34.421875 346.625 C 34.777344 346.863281 35.148438 347.0625 35.539062 347.222656 C 35.933594 347.386719 36.335938 347.507812 36.753906 347.589844 C 37.171875 347.675781 37.589844 347.714844 38.015625 347.714844 L 174.890625 347.714844 C 175.316406 347.714844 175.734375 347.675781 176.152344 347.589844 C 176.566406 347.507812 176.972656 347.386719 177.363281 347.222656 C 177.757812 347.0625 178.128906 346.863281 178.480469 346.625 C 178.835938 346.390625 179.160156 346.121094 179.460938 345.820312 C 179.761719 345.523438 180.03125 345.195312 180.265625 344.84375 C 180.5 344.488281 180.699219 344.117188 180.863281 343.722656 C 181.027344 343.332031 181.148438 342.925781 181.230469 342.511719 C 181.3125 342.09375 181.355469 341.675781 181.355469 341.25 L 181.355469 314.09375 C 181.339844 313.679688 181.285156 313.273438 181.1875 312.871094 C 181.09375 312.46875 180.960938 312.078125 180.792969 311.699219 C 180.621094 311.324219 180.417969 310.964844 180.179688 310.625 C 179.941406 310.289062 179.671875 309.976562 179.371094 309.6875 C 179.074219 309.402344 178.75 309.148438 178.402344 308.921875 C 178.054688 308.699219 177.691406 308.507812 177.304688 308.355469 C 176.921875 308.199219 176.527344 308.082031 176.121094 308.003906 C 175.714844 307.925781 175.304688 307.886719 174.890625 307.886719 Z M 168.425781 334.71875 L 44.285156 334.71875 L 44.285156 320.367188 L 168.617188 320.367188 Z M 168.425781 334.71875 " fill-opacity="1" fill-rule="nonzero"/></svg>