<svg xmlns="http://www.w3.org/2000/svg" xmlns:xlink="http://www.w3.org/1999/xlink" width="500" zoomAndPan="magnify" viewBox="0 0 375 374.999991" height="500" preserveAspectRatio="xMidYMid meet" version="1.0"><defs><clipPath id="82d943ee22"><path d="M 0 8.203125 L 375 8.203125 L 375 366.703125 L 0 366.703125 Z M 0 8.203125 " clip-rule="nonzero"/></clipPath></defs><g clip-path="url(#82d943ee22)"><path fill="#000000" d="M 187.089844 7.960938 C 83.902344 7.960938 -0.207031 80.246094 -0.207031 170.710938 C -0.207031 223.21875 28.574219 268.929688 72.765625 298.820312 C 72.703125 300.574219 72.828125 303.414062 70.53125 311.964844 C 67.660156 322.523438 61.886719 337.417969 50.175781 354.199219 L 41.847656 366.128906 L 56.398438 366.128906 C 106.8125 366.128906 135.976562 333.273438 140.507812 328.007812 C 155.503906 331.519531 170.945312 333.464844 187.089844 333.464844 C 290.28125 333.464844 374.390625 261.179688 374.390625 170.710938 C 374.390625 80.246094 290.28125 7.960938 187.089844 7.960938 Z M 187.089844 23.144531 C 283.230469 23.144531 359.203125 89.6875 359.203125 170.710938 C 359.203125 251.738281 283.230469 318.28125 187.089844 318.28125 C 170.4375 318.28125 154.738281 316.683594 139.996094 312.824219 L 135.273438 311.582031 L 132.179688 315.375 C 132.179688 315.375 108.597656 341.980469 70.945312 348.394531 C 77.773438 336.078125 82.816406 324.59375 85.144531 315.917969 C 88.433594 303.828125 88.496094 295.664062 88.496094 295.664062 L 88.496094 291.484375 L 84.984375 289.25 C 41.847656 261.816406 14.980469 219.359375 14.980469 170.710938 C 14.980469 89.6875 90.953125 23.144531 187.089844 23.144531 Z M 105.40625 154.378906 C 96.378906 154.378906 89.070312 161.683594 89.070312 170.710938 C 89.070312 179.738281 96.378906 187.042969 105.40625 187.042969 C 114.4375 187.042969 121.746094 179.738281 121.746094 170.710938 C 121.746094 161.683594 114.4375 154.378906 105.40625 154.378906 Z M 187.089844 154.378906 C 178.0625 154.378906 170.753906 161.683594 170.753906 170.710938 C 170.753906 179.738281 178.0625 187.042969 187.089844 187.042969 C 196.121094 187.042969 203.429688 179.738281 203.429688 170.710938 C 203.429688 161.683594 196.121094 154.378906 187.089844 154.378906 Z M 268.777344 154.378906 C 259.746094 154.378906 252.4375 161.683594 252.4375 170.710938 C 252.4375 179.738281 259.746094 187.042969 268.777344 187.042969 C 277.804688 187.042969 285.113281 179.738281 285.113281 170.710938 C 285.113281 161.683594 277.804688 154.378906 268.777344 154.378906 Z M 268.777344 154.378906 " fill-opacity="1" fill-rule="nonzero"/></g></svg>