<svg xmlns="http://www.w3.org/2000/svg" xmlns:xlink="http://www.w3.org/1999/xlink" width="500" zoomAndPan="magnify" viewBox="0 0 375 374.999991" height="500" preserveAspectRatio="xMidYMid meet" version="1.0"><defs><clipPath id="08df069f0a"><path d="M 30 3.75 L 345 3.75 L 345 164 L 30 164 Z M 30 3.75 " clip-rule="nonzero"/></clipPath><clipPath id="d89f4d9984"><path d="M 113 199 L 262 199 L 262 371.25 L 113 371.25 Z M 113 199 " clip-rule="nonzero"/></clipPath></defs><g clip-path="url(#08df069f0a)"><path fill="#ffffff" d="M 37.300781 163.160156 L 37.546875 163.160156 C 41.414062 163.160156 44.609375 160.105469 44.738281 156.214844 C 47.398438 78.789062 110.109375 18.128906 187.5 18.128906 C 264.972656 18.128906 327.730469 78.789062 330.378906 156.085938 L 344.761719 155.722656 C 341.847656 70.496094 272.773438 3.742188 187.5 3.742188 C 102.308594 3.742188 33.28125 70.496094 30.355469 155.722656 C 30.214844 159.695312 33.328125 163.019531 37.300781 163.160156 Z M 37.300781 163.160156 " fill-opacity="1" fill-rule="nonzero"/></g><path fill="#ffffff" d="M 122.621094 282.128906 C 125.84375 279.796875 126.570312 275.296875 124.238281 272.078125 C 122.457031 269.628906 120.277344 267.144531 118.089844 264.964844 C 111.621094 258.492188 103.894531 253.421875 95.488281 249.972656 C 106.1875 241.933594 113.214844 229.265625 113.214844 214.882812 C 113.214844 190.609375 93.476562 170.871094 69.199219 170.871094 C 44.925781 170.871094 25.1875 190.609375 25.1875 214.882812 C 25.1875 229.265625 32.214844 241.933594 42.90625 249.972656 C 17.761719 260.34375 0 285.105469 0 313.957031 L 0 331.953125 C 0 335.925781 3.222656 339.144531 7.191406 339.144531 L 91.167969 339.144531 C 95.136719 339.144531 98.359375 335.925781 98.359375 331.953125 C 98.359375 327.980469 95.136719 324.761719 91.167969 324.761719 L 43.289062 324.761719 L 43.289062 309.4375 C 43.289062 305.464844 40.066406 302.242188 36.09375 302.242188 C 32.121094 302.242188 28.902344 305.464844 28.902344 309.4375 L 28.902344 324.761719 L 14.386719 324.761719 L 14.386719 313.957031 C 14.386719 283.734375 38.988281 259.132812 69.210938 259.132812 C 83.632812 259.132812 97.738281 264.964844 107.917969 275.132812 C 109.570312 276.796875 111.234375 278.648438 112.570312 280.511719 C 114.878906 283.710938 119.363281 284.472656 122.621094 282.128906 Z M 69.199219 185.257812 C 85.53125 185.257812 98.828125 198.554688 98.828125 214.882812 C 98.828125 231.214844 85.53125 244.511719 69.199219 244.511719 C 52.871094 244.511719 39.574219 231.214844 39.574219 214.882812 C 39.574219 198.554688 52.871094 185.257812 69.199219 185.257812 Z M 69.199219 185.257812 " fill-opacity="1" fill-rule="nonzero"/><path fill="#ffffff" d="M 354.757812 264.929688 C 348.15625 258.40625 340.480469 253.355469 332.15625 249.933594 C 342.824219 241.894531 349.835938 229.246094 349.835938 214.882812 C 349.835938 190.609375 330.097656 170.871094 305.824219 170.871094 C 281.546875 170.871094 261.808594 190.609375 261.808594 214.882812 C 261.808594 229.3125 268.878906 242.027344 279.632812 250.058594 C 268.417969 254.675781 258.375 262.109375 250.878906 271.925781 C 248.464844 275.085938 249.0625 279.597656 252.226562 282.011719 C 255.355469 284.402344 259.886719 283.828125 262.3125 280.664062 C 272.773438 266.980469 288.613281 259.132812 305.789062 259.132812 C 320.382812 259.132812 334.171875 264.824219 344.574219 275.109375 C 354.921875 285.574219 360.613281 299.363281 360.613281 313.957031 L 360.613281 324.761719 L 346.121094 324.761719 L 346.121094 309.4375 C 346.121094 305.464844 342.902344 302.242188 338.929688 302.242188 C 334.957031 302.242188 331.734375 305.464844 331.734375 309.4375 L 331.734375 324.761719 L 283.949219 324.761719 C 279.980469 324.761719 276.757812 327.980469 276.757812 331.953125 C 276.757812 335.925781 279.980469 339.144531 283.949219 339.144531 L 367.808594 339.144531 C 371.777344 339.144531 375 335.925781 375 331.953125 L 375 313.957031 C 375 295.554688 367.832031 278.15625 354.757812 264.929688 Z M 305.824219 185.257812 C 322.152344 185.257812 335.449219 198.554688 335.449219 214.882812 C 335.449219 231.214844 322.152344 244.511719 305.824219 244.511719 C 289.492188 244.511719 276.195312 231.214844 276.195312 214.882812 C 276.195312 198.554688 289.492188 185.257812 305.824219 185.257812 Z M 305.824219 185.257812 " fill-opacity="1" fill-rule="nonzero"/><g clip-path="url(#d89f4d9984)"><path fill="#ffffff" d="M 214.890625 275.402344 C 226.796875 266.839844 234.640625 252.945312 234.640625 237.191406 C 234.640625 223.039062 228.398438 209.777344 217.515625 200.800781 C 214.445312 198.296875 209.910156 198.71875 207.378906 201.773438 C 204.851562 204.84375 205.285156 209.378906 208.351562 211.910156 C 215.910156 218.140625 220.253906 227.359375 220.253906 237.191406 C 220.253906 255.242188 205.554688 269.945312 187.5 269.945312 C 169.445312 269.945312 154.746094 255.242188 154.746094 237.191406 C 154.746094 227.335938 159.125 218.082031 166.765625 211.792969 C 169.832031 209.261719 170.265625 204.726562 167.738281 201.65625 C 165.207031 198.578125 160.671875 198.15625 157.601562 200.683594 C 146.636719 209.71875 140.359375 223.027344 140.359375 237.191406 C 140.359375 252.953125 148.203125 266.847656 160.117188 275.410156 C 132.601562 286.347656 113.074219 313.183594 113.074219 344.558594 L 113.074219 364.0625 C 113.074219 368.035156 116.296875 371.257812 120.265625 371.257812 L 254.757812 371.257812 C 258.726562 371.257812 261.949219 368.035156 261.949219 364.0625 L 261.949219 344.558594 C 261.949219 313.179688 242.414062 286.339844 214.890625 275.402344 Z M 247.5625 356.871094 L 234.734375 356.871094 L 234.734375 343.433594 C 234.734375 339.460938 231.511719 336.242188 227.542969 336.242188 C 223.570312 336.242188 220.347656 339.460938 220.347656 343.433594 L 220.347656 356.871094 L 154.675781 356.871094 L 154.675781 343.433594 C 154.675781 339.460938 151.453125 336.242188 147.480469 336.242188 C 143.511719 336.242188 140.289062 339.460938 140.289062 343.433594 L 140.289062 356.871094 L 127.460938 356.871094 L 127.460938 344.558594 C 127.460938 311.453125 154.40625 284.507812 187.511719 284.507812 C 220.617188 284.507812 247.5625 311.453125 247.5625 344.558594 Z M 247.5625 356.871094 " fill-opacity="1" fill-rule="nonzero"/></g><path fill="#ffffff" d="M 98.734375 107.539062 C 98.734375 134.285156 124.25 157.914062 161.152344 165.691406 L 181.652344 194.429688 C 183 196.316406 185.179688 197.441406 187.511719 197.441406 C 189.84375 197.441406 192.023438 196.316406 193.371094 194.429688 L 213.871094 165.691406 C 250.773438 157.914062 276.289062 134.296875 276.289062 107.539062 C 276.289062 73.953125 236.46875 46.632812 187.511719 46.632812 C 138.554688 46.632812 98.734375 73.953125 98.734375 107.539062 Z M 261.902344 107.539062 C 261.902344 127.933594 239.878906 146.269531 208.351562 152.113281 C 206.511719 152.453125 204.886719 153.496094 203.808594 155.007812 L 187.511719 177.851562 L 171.214844 155.007812 C 170.136719 153.496094 168.511719 152.453125 166.671875 152.113281 C 135.144531 146.257812 113.121094 127.933594 113.121094 107.539062 C 113.121094 81.894531 146.496094 61.019531 187.511719 61.019531 C 228.527344 61.019531 261.902344 81.894531 261.902344 107.539062 Z M 261.902344 107.539062 " fill-opacity="1" fill-rule="nonzero"/><path fill="#ffffff" d="M 148.089844 94.960938 C 141.144531 94.960938 135.515625 100.589844 135.515625 107.539062 C 135.515625 114.480469 141.144531 120.109375 148.089844 120.109375 C 155.03125 120.109375 160.660156 114.480469 160.660156 107.539062 C 160.660156 100.589844 155.03125 94.960938 148.089844 94.960938 Z M 148.089844 94.960938 " fill-opacity="1" fill-rule="nonzero"/><path fill="#ffffff" d="M 174.9375 107.539062 C 174.9375 114.480469 180.566406 120.109375 187.511719 120.109375 C 194.457031 120.109375 200.085938 114.480469 200.085938 107.539062 C 200.085938 100.589844 194.457031 94.960938 187.511719 94.960938 C 180.566406 94.960938 174.9375 100.589844 174.9375 107.539062 Z M 174.9375 107.539062 " fill-opacity="1" fill-rule="nonzero"/><path fill="#ffffff" d="M 226.933594 120.109375 C 233.878906 120.109375 239.507812 114.480469 239.507812 107.539062 C 239.507812 100.589844 233.878906 94.960938 226.933594 94.960938 C 219.992188 94.960938 214.363281 100.589844 214.363281 107.539062 C 214.363281 114.480469 219.992188 120.109375 226.933594 120.109375 Z M 226.933594 120.109375 " fill-opacity="1" fill-rule="nonzero"/></svg>