<svg xmlns="http://www.w3.org/2000/svg" xmlns:xlink="http://www.w3.org/1999/xlink" width="500" zoomAndPan="magnify" viewBox="0 0 375 374.999991" height="500" preserveAspectRatio="xMidYMid meet" version="1.0"><path fill="#ffffff" d="M 187.503906 364.820312 C 89.730469 364.820312 10.179688 285.261719 10.179688 187.511719 C 10.179688 122.921875 44.914062 66.28125 96.679688 35.28125 C 98.644531 36.726562 101.117188 37.710938 104.265625 37.710938 C 104.265625 37.710938 107.664062 37.710938 85.933594 54.683594 C 64.195312 71.675781 66.222656 95.234375 73.011719 80.40625 C 79.816406 65.558594 85.933594 70.996094 75.058594 92.0625 C 64.195312 113.132812 80.78125 106.332031 86.398438 119.230469 C 92.042969 132.132812 94.082031 116.523438 96.789062 140.984375 C 96.789062 140.984375 103.609375 149.128906 115.820312 145.054688 C 128.050781 140.984375 113.785156 155.90625 100.875 168.152344 C 87.960938 180.386719 92.035156 184.441406 98.835938 191.925781 C 105.628906 199.410156 108.355469 205.507812 102.238281 213.671875 C 96.128906 221.820312 111.746094 224.53125 115.820312 229.285156 C 119.894531 234.042969 119.210938 249.671875 109.710938 256.472656 C 100.210938 263.253906 114.464844 278.203125 112.410156 299.273438 C 110.375 320.316406 110.875 329.148438 120.476562 330.511719 C 130.085938 331.871094 119.210938 312.171875 123.285156 303.34375 C 127.367188 294.515625 132.132812 309.464844 141.636719 285.683594 C 141.636719 285.683594 158.636719 289.757812 166.078125 263.9375 C 166.078125 263.9375 181.027344 261.890625 183.753906 253.746094 C 186.484375 245.597656 183.074219 240.160156 204.804688 222.503906 C 226.53125 204.828125 189.855469 191.242188 170.171875 190.5625 C 170.171875 190.5625 162.949219 193.511719 175.605469 170.859375 C 181.125 160.96875 164.730469 163.394531 160.660156 154.566406 C 156.585938 145.734375 147.078125 135.546875 128.050781 137.574219 C 109.027344 139.617188 103.574219 146.421875 102.917969 134.859375 C 102.238281 123.304688 111.054688 117.886719 101.546875 116.523438 C 92.042969 115.15625 96.789062 114.476562 107.003906 104.964844 C 107.003906 104.964844 100.875 100.871094 94.761719 107.011719 C 88.644531 113.132812 77.769531 103.621094 90.679688 90.039062 C 103.609375 76.433594 123.96875 66.238281 122.613281 92.0625 C 121.257812 117.886719 130.769531 80.40625 130.769531 80.40625 C 130.769531 80.40625 145.035156 62.167969 162.707031 60.820312 C 180.34375 59.460938 169.488281 58.777344 169.488281 52.65625 C 169.488281 46.558594 177.636719 62.847656 187.503906 58.777344 C 197.335938 54.683594 176.953125 53.34375 179 46.558594 C 181.027344 39.757812 192.601562 41.78125 197.335938 50.632812 C 202.09375 59.460938 207.53125 45.875 195.3125 31.589844 C 183.074219 17.34375 185.121094 26.171875 173.5625 32.269531 C 162.023438 38.390625 166.78125 41.78125 164.730469 31.589844 C 162.707031 21.417969 162.023438 32.269531 156.585938 26.855469 C 151.132812 21.417969 166.28125 23.925781 174.246094 24.804688 C 182.210938 25.667969 179.683594 20.050781 179.683594 20.050781 L 187.503906 16.660156 C 187.503906 16.660156 192.601562 24.125 198.703125 22.761719 C 204.804688 21.417969 194.628906 11.886719 200.726562 13.25 C 206.847656 14.613281 214.996094 9.179688 215.679688 17.34375 C 216.359375 25.488281 210.921875 36.363281 233.355469 24.125 C 237.890625 21.65625 240.917969 20.050781 242.980469 19.089844 C 244.511719 19.589844 245.996094 20.113281 247.5 20.671875 C 247.636719 22.296875 248.160156 24.410156 251.011719 26.171875 C 259.839844 31.589844 257.132812 26.832031 268.667969 33.636719 C 280.226562 40.441406 272.742188 47.90625 281.570312 49.265625 C 290.398438 50.632812 298.5625 62.847656 291.785156 63.53125 C 284.980469 64.210938 284.296875 56.070312 274.125 54.683594 C 263.914062 53.34375 278.203125 58.074219 284.980469 64.210938 C 291.785156 70.316406 291.785156 77.558594 284.980469 80.40625 C 278.203125 83.238281 283.214844 98.867188 294.289062 96.820312 C 305.367188 94.773438 301.273438 83.238281 307.390625 85.964844 C 313.511719 88.671875 311.464844 95.453125 321.660156 99.546875 C 331.871094 103.621094 320.292969 109.039062 332.535156 109.71875 C 344.773438 110.40625 350.871094 115.15625 339.996094 119.914062 C 329.125 124.691406 334.578125 128.742188 325.046875 117.183594 C 315.539062 105.648438 316.480469 116.703125 315.539062 105.648438 C 314.617188 94.59375 299.25 104.964844 291.097656 106.332031 C 282.9375 107.691406 289.734375 115.839844 282.25 117.183594 C 274.765625 118.550781 271.378906 116.523438 273.421875 134.179688 C 275.449219 151.859375 270.714844 155.90625 262.546875 155.90625 C 254.402344 155.90625 269.367188 165.421875 273.421875 177.660156 C 277.496094 189.878906 278.203125 197.359375 295.855469 192.609375 C 313.511719 187.851562 308.074219 187.851562 310.121094 197.359375 C 312.144531 206.875 319.632812 191.925781 320.976562 201.4375 C 322.339844 210.945312 304 212.992188 314.171875 219.089844 C 324.367188 225.195312 316.925781 239.480469 312.144531 242.867188 C 307.390625 246.277344 310.785156 258.480469 300.609375 263.9375 C 290.398438 269.375 305.367188 278.863281 299.25 285.003906 C 293.148438 291.121094 276.816406 298.585938 282.9375 313.539062 C 289.074219 328.464844 289.074219 319.636719 301.972656 308.757812 C 314.855469 297.90625 325.753906 279.566406 331.871094 280.25 C 334.058594 280.492188 335.101562 282.195312 336.402344 283.640625 C 304.765625 332.457031 249.84375 364.820312 187.503906 364.820312 Z M 187.503906 0.0078125 C 84.101562 0.0078125 -0.0078125 84.117188 -0.0078125 187.511719 C -0.0078125 290.882812 84.101562 375.011719 187.503906 375.011719 C 290.882812 375.011719 374.992188 290.882812 374.992188 187.511719 C 374.992188 84.117188 290.882812 0.0078125 187.503906 0.0078125 " fill-opacity="1" fill-rule="nonzero"/></svg>