<svg xmlns="http://www.w3.org/2000/svg" xmlns:xlink="http://www.w3.org/1999/xlink" width="500" zoomAndPan="magnify" viewBox="0 0 375 374.999991" height="500" preserveAspectRatio="xMidYMid meet" version="1.0"><defs><clipPath id="52cfa38b17"><path d="M 0 0 L 374.929688 0 L 374.929688 375 L 0 375 Z M 0 0 " clip-rule="nonzero"/></clipPath></defs><g clip-path="url(#52cfa38b17)"><path fill="#ffffff" d="M 354.632812 102.328125 L 347.898438 113.785156 C 338.566406 129.589844 322.148438 140.414062 303.695312 143.128906 L 237.398438 105.609375 C 230.640625 88.695312 232.011719 69.4375 241.273438 53.703125 L 248.054688 42.21875 C 264.996094 13.445312 302.703125 3.542969 332.140625 20.199219 C 361.582031 36.832031 371.550781 73.621094 354.632812 102.328125 Z M 289.1875 226.671875 C 269.742188 215.664062 217.082031 185.871094 170.984375 159.785156 L 205.386719 101.40625 L 323.589844 168.269531 Z M 231.019531 235.035156 C 208.90625 221.664062 197.847656 212.757812 194.917969 209.117188 L 203.753906 192.226562 L 244.179688 215.097656 Z M 236.949219 269.484375 C 231.375 267.191406 226.414062 274.019531 229.769531 278.652344 C 233.289062 283.472656 228.207031 289.96875 222.609375 287.699219 C 217.058594 285.410156 212.046875 292.1875 215.425781 296.84375 C 218.945312 301.6875 213.867188 308.183594 208.269531 305.890625 C 202.667969 303.578125 197.730469 310.429688 201.085938 315.035156 C 203.992188 319.050781 201.699219 325.785156 193.003906 323.800781 C 177.128906 320.140625 137.199219 299.960938 139.867188 301.355469 C 139.84375 301.332031 139.820312 301.355469 139.773438 301.332031 C 123.257812 293.9375 121.558594 296.394531 105.113281 279.761719 C 100.414062 275.011719 95.898438 270.476562 90.679688 268.375 L 90.679688 205.125 C 133.347656 204.867188 151.304688 202.101562 165.789062 199.855469 C 173.113281 198.722656 179.324219 197.777344 187.429688 197.328125 L 183.671875 204.488281 C 182.5625 206.117188 182.066406 208.054688 182.324219 210.085938 C 182.726562 213.394531 183.71875 221.191406 229.769531 248.433594 C 240.496094 254.765625 243.707031 259.84375 243.707031 259.84375 C 247.722656 266.8125 241.816406 271.46875 236.949219 269.484375 Z M 148.019531 360.894531 L 122.953125 346.71875 L 139.75 314.609375 C 150.453125 319.570312 159.691406 324.179688 169.519531 328.359375 Z M 78.582031 296.371094 L 60.4375 296.371094 L 60.4375 199.597656 L 78.582031 199.597656 Z M 338.09375 9.664062 C 303.011719 -10.207031 257.90625 1.628906 237.613281 36.078125 L 230.855469 47.558594 C 222.019531 62.585938 219.136719 80.257812 222.347656 97.082031 L 206.164062 87.9375 C 203.304688 86.308594 199.644531 87.277344 197.964844 90.136719 L 157.445312 158.960938 C 155.722656 161.839844 156.714844 165.621094 159.667969 167.277344 L 191.113281 185.066406 C 180.152344 185.398438 172.519531 186.578125 163.945312 187.902344 C 149.839844 190.097656 132.378906 192.792969 90.558594 193.027344 C 90.300781 189.933594 87.796875 187.5 84.628906 187.5 L 60.4375 187.5 L 60.4375 181.453125 C 60.4375 178.121094 57.742188 175.402344 54.386719 175.402344 L 6 175.402344 C -2.007812 175.402344 -1.984375 187.5 6 187.5 L 48.339844 187.5 L 48.339844 308.46875 L 6 308.46875 C -2.007812 308.46875 -1.984375 320.566406 6 320.566406 L 54.386719 320.566406 C 57.742188 320.566406 60.4375 317.847656 60.4375 314.515625 L 60.4375 308.46875 L 84.628906 308.46875 C 87.960938 308.46875 90.679688 305.75 90.679688 302.417969 L 90.679688 282.621094 C 92.496094 284.226562 94.480469 286.210938 96.515625 288.242188 C 111.777344 303.742188 116.3125 304.757812 128.671875 309.742188 L 109.507812 346.316406 C 107.996094 349.199219 109.058594 352.765625 111.894531 354.375 L 146.980469 374.21875 C 149.769531 375.78125 153.265625 374.929688 155.011719 372.28125 L 181.027344 332.851562 C 186.128906 334.621094 191.539062 336.300781 196.148438 336.300781 C 207.675781 336.300781 214.527344 327.488281 214.246094 318.011719 C 222.796875 316.21875 228.847656 308.796875 228.585938 299.820312 C 237.140625 298.023438 243.1875 290.582031 242.929688 281.605469 C 255.804688 278.910156 261.425781 264.050781 254.054688 253.535156 C 253.132812 252.09375 249.683594 247.296875 241.273438 241.464844 L 254.71875 221.074219 L 288.410156 240.117188 C 291.242188 241.746094 294.90625 240.777344 296.582031 237.941406 L 337.125 169.117188 C 338.851562 166.210938 337.835938 162.457031 334.90625 160.777344 L 319.027344 151.800781 C 335.402344 146.105469 349.507812 134.882812 358.320312 119.929688 L 365.054688 108.445312 C 385.394531 73.925781 373.441406 29.652344 338.09375 9.664062 " fill-opacity="1" fill-rule="nonzero"/></g></svg>