<svg xmlns="http://www.w3.org/2000/svg" xmlns:xlink="http://www.w3.org/1999/xlink" width="500" zoomAndPan="magnify" viewBox="0 0 375 374.999991" height="500" preserveAspectRatio="xMidYMid meet" version="1.0"><defs><clipPath id="c9e976f23b"><path d="M 0 3.28125 L 375 3.28125 L 375 371.53125 L 0 371.53125 Z M 0 3.28125 " clip-rule="nonzero"/></clipPath></defs><path fill="#ffffff" d="M 181.046875 339.40625 L 193.972656 339.40625 L 193.972656 365.257812 L 181.046875 365.257812 Z M 181.046875 339.40625 " fill-opacity="1" fill-rule="nonzero"/><path fill="#ffffff" d="M 3.527344 252.875 L 29.378906 239.339844 L 35.375 250.789062 L 9.527344 264.328125 Z M 3.527344 252.875 " fill-opacity="1" fill-rule="nonzero"/><path fill="#ffffff" d="M 339.550781 250.820312 L 345.683594 239.441406 L 370.039062 252.566406 L 363.90625 263.945312 Z M 339.550781 250.820312 " fill-opacity="1" fill-rule="nonzero"/><path fill="#ffffff" d="M 30.539062 36.449219 L 39.679688 27.308594 L 59.929688 47.558594 L 50.789062 56.699219 Z M 30.539062 36.449219 " fill-opacity="1" fill-rule="nonzero"/><path fill="#ffffff" d="M 315.335938 47.3125 L 335.53125 27.117188 L 344.671875 36.257812 L 324.476562 56.453125 Z M 315.335938 47.3125 " fill-opacity="1" fill-rule="nonzero"/><path fill="#ffffff" d="M 187.507812 210.132812 C 166.125 210.132812 148.726562 192.738281 148.726562 171.355469 L 148.726562 158.425781 C 148.726562 137.042969 166.125 119.648438 187.507812 119.648438 C 208.890625 119.648438 226.285156 137.042969 226.285156 158.425781 L 226.285156 171.355469 C 226.285156 192.738281 208.890625 210.132812 187.507812 210.132812 Z M 187.507812 132.574219 C 173.25 132.574219 161.652344 144.167969 161.652344 158.425781 L 161.652344 171.355469 C 161.652344 185.609375 173.25 197.207031 187.507812 197.207031 C 201.765625 197.207031 213.359375 185.609375 213.359375 171.355469 L 213.359375 158.425781 C 213.359375 144.167969 201.765625 132.574219 187.507812 132.574219 Z M 187.507812 132.574219 " fill-opacity="1" fill-rule="nonzero"/><path fill="#ffffff" d="M 258.605469 274.773438 L 245.679688 274.773438 C 245.679688 252.664062 220.671875 235.992188 187.507812 235.992188 C 154.339844 235.992188 129.332031 252.664062 129.332031 274.773438 L 116.40625 274.773438 C 116.40625 245.296875 146.972656 223.066406 187.507812 223.066406 C 228.039062 223.066406 258.605469 245.296875 258.605469 274.773438 Z M 258.605469 274.773438 " fill-opacity="1" fill-rule="nonzero"/><g clip-path="url(#c9e976f23b)"><path fill="#ffffff" d="M 297.386719 371.726562 C 293.480469 371.726562 289.710938 370.5625 286.484375 368.371094 L 187.507812 298.550781 L 88.652344 368.269531 C 85.332031 370.550781 81.539062 371.726562 77.628906 371.726562 C 66.933594 371.726562 58.234375 363.027344 58.234375 352.332031 C 58.234375 350.503906 58.53125 348.640625 59.148438 346.632812 L 93.261719 235.507812 L 6.957031 166.714844 C 2.496094 162.824219 0.0664062 157.511719 0.0664062 151.96875 C 0.0664062 142.382812 6.964844 134.335938 16.46875 132.855469 L 124.863281 120.132812 C 132.753906 101.660156 169.839844 14.777344 169.839844 14.777344 C 173.074219 7.746094 179.984375 3.308594 187.507812 3.308594 C 195.027344 3.308594 201.9375 7.746094 205.089844 14.613281 C 236.558594 88.300781 246.789062 112.257812 250.148438 120.132812 L 357.898438 132.78125 C 367.636719 133.984375 374.953125 142.234375 374.953125 151.972656 C 374.953125 157.652344 372.417969 163.046875 368.015625 166.761719 L 279.109375 238.210938 L 315.722656 346.203125 C 316.4375 348.386719 316.777344 350.375 316.777344 352.347656 C 316.777344 363.039062 308.082031 371.738281 297.386719 371.738281 Z M 187.507812 282.730469 L 293.84375 357.742188 C 294.824219 358.414062 296.082031 358.800781 297.386719 358.800781 C 300.957031 358.800781 303.851562 355.902344 303.851562 352.332031 C 303.851562 351.753906 303.726562 351.082031 303.460938 350.289062 L 263.964844 233.78125 L 359.808594 156.773438 C 360.566406 156.128906 362.03125 154.515625 362.03125 151.960938 C 362.03125 148.734375 359.597656 146.011719 356.359375 145.601562 L 241.210938 132.089844 L 239.738281 128.628906 C 239.375 127.761719 193.289062 19.835938 193.289062 19.835938 C 192.304688 17.707031 190.015625 16.222656 187.519531 16.222656 C 185.027344 16.222656 182.726562 17.707031 181.671875 20 C 170.875 45.292969 135.402344 128.386719 135.269531 128.6875 L 133.785156 132.089844 L 18.222656 145.648438 C 15.300781 146.113281 13 148.773438 13 151.953125 C 13 154.449219 14.40625 156.046875 15.246094 156.78125 L 108.226562 230.878906 L 71.523438 350.421875 C 71.28125 351.195312 71.175781 351.792969 71.175781 352.324219 C 71.175781 355.894531 74.070312 358.792969 77.640625 358.792969 C 78.9375 358.792969 80.203125 358.394531 81.292969 357.648438 L 187.519531 282.726562 Z M 187.507812 282.730469 " fill-opacity="1" fill-rule="nonzero"/></g></svg>