<svg xmlns="http://www.w3.org/2000/svg" xmlns:xlink="http://www.w3.org/1999/xlink" width="500" zoomAndPan="magnify" viewBox="0 0 375 374.999991" height="500" preserveAspectRatio="xMidYMid meet" version="1.0"><path fill="#000000" d="M 85.582031 366.628906 L 38.902344 366.628906 C 17.441406 366.628906 0 349.175781 0 327.707031 L 0 203.160156 C 0 181.695312 17.441406 164.242188 38.902344 164.242188 L 116.703125 164.242188 C 120.996094 164.242188 124.480469 167.730469 124.480469 172.027344 L 124.480469 175 L 126.332031 174.050781 L 171.160156 76.917969 L 171.160156 24.125 C 171.160156 21.761719 172.234375 19.519531 174.085938 18.039062 C 174.570312 17.664062 186.128906 8.558594 202.28125 8.558594 C 220.285156 8.558594 248.960938 37.0625 248.960938 70.832031 C 248.960938 92.128906 241.339844 118.640625 236.578125 133.105469 L 332.691406 133.105469 C 353.636719 133.105469 371.453125 148.609375 373.273438 168.398438 C 374.285156 179.5 370.582031 190.164062 363.3125 198.117188 C 369.726562 204.546875 373.445312 213.265625 373.445312 222.621094 C 373.445312 236.121094 365.726562 247.984375 354.242188 253.773438 C 356.625 258.539062 357.882812 263.816406 357.882812 269.328125 C 357.882812 282.824219 350.148438 294.703125 338.667969 300.480469 C 342.214844 307.578125 343.257812 315.75 341.46875 323.878906 C 337.980469 339.632812 323.152344 351.0625 306.207031 351.0625 L 163.382812 351.0625 C 152.566406 351.0625 135.140625 347.558594 122.195312 340.894531 C 116.777344 355.886719 102.402344 366.628906 85.582031 366.628906 Z M 38.902344 179.808594 C 26.03125 179.808594 15.558594 190.285156 15.558594 203.160156 L 15.558594 327.707031 C 15.558594 340.582031 26.03125 351.0625 38.902344 351.0625 L 85.582031 351.0625 C 98.449219 351.0625 108.921875 340.582031 108.921875 327.707031 C 108.921875 324.5625 110.820312 321.714844 113.730469 320.515625 C 116.625 319.332031 119.984375 319.988281 122.210938 322.195312 C 129.554688 329.5625 150.746094 335.492188 163.382812 335.492188 L 306.207031 335.492188 C 315.917969 335.492188 324.351562 329.203125 326.265625 320.515625 C 327.804688 313.542969 325.753906 306.769531 320.632812 301.941406 C 318.421875 299.855469 317.628906 296.695312 318.578125 293.816406 C 319.542969 290.9375 322.078125 288.898438 325.082031 288.539062 C 334.902344 287.402344 342.324219 279.152344 342.324219 269.328125 C 342.324219 263.972656 340.128906 258.957031 336.175781 255.238281 C 333.96875 253.152344 333.175781 249.992188 334.125 247.113281 C 335.089844 244.230469 337.625 242.191406 340.628906 241.832031 C 350.460938 240.695312 357.882812 232.445312 357.882812 222.621094 C 357.882812 215.367188 353.808594 208.765625 347.226562 205.417969 C 344.734375 204.128906 343.117188 201.605469 343.007812 198.789062 C 342.898438 195.96875 344.316406 193.324219 346.695312 191.859375 C 354.335938 187.140625 358.597656 178.703125 357.773438 169.832031 C 356.6875 157.96875 345.667969 148.671875 332.691406 148.671875 L 225.621094 148.671875 C 223.070312 148.671875 220.675781 147.410156 219.210938 145.308594 C 217.765625 143.191406 217.453125 140.5 218.355469 138.117188 C 218.496094 137.730469 233.402344 98.230469 233.402344 70.832031 C 233.402344 45.332031 210.808594 24.125 202.28125 24.125 C 195.574219 24.125 189.957031 26.554688 186.722656 28.34375 L 186.722656 78.617188 C 186.722656 79.738281 186.472656 80.859375 186.007812 81.886719 L 139.324219 183.078125 C 138.578125 184.683594 137.320312 185.992188 135.746094 186.769531 L 120.1875 194.554688 C 117.757812 195.734375 114.894531 195.597656 112.625 194.226562 C 110.320312 192.792969 108.921875 190.285156 108.921875 187.59375 L 108.921875 179.808594 Z M 38.902344 179.808594 " fill-opacity="1" fill-rule="nonzero"/><path fill="#000000" d="M 116.703125 335.492188 C 112.40625 335.492188 108.921875 332.003906 108.921875 327.707031 L 108.921875 187.59375 C 108.921875 183.296875 112.40625 179.808594 116.703125 179.808594 C 120.996094 179.808594 124.480469 183.296875 124.480469 187.59375 L 124.480469 327.707031 C 124.480469 332.003906 120.996094 335.492188 116.703125 335.492188 Z M 116.703125 335.492188 " fill-opacity="1" fill-rule="nonzero"/></svg>