<svg xmlns="http://www.w3.org/2000/svg" xmlns:xlink="http://www.w3.org/1999/xlink" width="500" zoomAndPan="magnify" viewBox="0 0 375 374.999991" height="500" preserveAspectRatio="xMidYMid meet" version="1.0"><defs><clipPath id="15ed83c63c"><path d="M 0 0.9375 L 375 0.9375 L 375 374.4375 L 0 374.4375 Z M 0 0.9375 " clip-rule="nonzero"/></clipPath></defs><g clip-path="url(#15ed83c63c)"><path fill="#ffffff" d="M 123.148438 56.871094 C 123.148438 43.351562 124.5625 30.15625 127.257812 17.425781 C 62.015625 43.335938 15.894531 107.097656 15.894531 181.640625 C 15.894531 279.175781 94.855469 358.226562 192.234375 358.226562 C 268.972656 358.226562 334.285156 309.136719 358.519531 240.574219 C 343.722656 244.296875 328.238281 246.269531 312.308594 246.269531 C 207.828125 246.269531 123.148438 161.464844 123.148438 56.871094 Z M 138.988281 56.871094 C 138.988281 152.738281 216.597656 230.433594 312.308594 230.433594 C 327.328125 230.433594 341.890625 228.523438 355.769531 224.933594 L 356.269531 224.8125 C 366.742188 222.492188 378.210938 231.976562 374.078125 244.050781 C 348.195312 319.675781 276.574219 374.0625 192.234375 374.0625 C 86.089844 374.0625 0.0585938 287.902344 0.0585938 181.640625 C 0.0585938 99.71875 51.179688 29.769531 123.207031 2.003906 L 123.773438 1.796875 C 135.648438 -2.3125 145.289062 9.085938 142.996094 19.585938 C 140.371094 31.589844 138.988281 44.0625 138.988281 56.871094 Z M 138.988281 56.871094 " fill-opacity="1" fill-rule="nonzero"/></g></svg>