<svg xmlns="http://www.w3.org/2000/svg" xmlns:xlink="http://www.w3.org/1999/xlink" width="500" zoomAndPan="magnify" viewBox="0 0 375 374.999991" height="500" preserveAspectRatio="xMidYMid meet" version="1.0"><defs><clipPath id="ec6646344b"><path d="M 0 20.859375 L 373 20.859375 L 373 271 L 0 271 Z M 0 20.859375 " clip-rule="nonzero"/></clipPath><clipPath id="20c06e6085"><path d="M 208 215 L 278 215 L 278 353.859375 L 208 353.859375 Z M 208 215 " clip-rule="nonzero"/></clipPath><clipPath id="dbd810f320"><path d="M 305 173 L 375 173 L 375 353.859375 L 305 353.859375 Z M 305 173 " clip-rule="nonzero"/></clipPath><clipPath id="9c279a717e"><path d="M 111 256 L 181 256 L 181 353.859375 L 111 353.859375 Z M 111 256 " clip-rule="nonzero"/></clipPath><clipPath id="c46c6b7d5d"><path d="M 13 284 L 84 284 L 84 353.859375 L 13 353.859375 Z M 13 284 " clip-rule="nonzero"/></clipPath></defs><g clip-path="url(#ec6646344b)"><path fill="#ffffff" d="M 277.871094 118.066406 L 228.996094 118.066406 L 178.550781 187.5 L 122.1875 187.5 L 75.917969 256.933594 L 0.03125 256.933594 L 0.03125 270.820312 L 83.347656 270.820312 L 129.621094 201.386719 L 185.601562 201.386719 L 236.101562 131.953125 L 284.707031 131.953125 L 351.320312 45.378906 L 372.148438 61.433594 L 361.410156 20.859375 L 319.421875 20.859375 L 340.308594 36.914062 L 277.871094 118.066406 " fill-opacity="1" fill-rule="nonzero"/></g><g clip-path="url(#20c06e6085)"><path fill="#ffffff" d="M 222.214844 229.160156 L 263.875 229.160156 L 263.875 340.253906 L 222.214844 340.253906 Z M 208.328125 215.273438 L 208.328125 354.140625 L 277.761719 354.140625 L 277.761719 215.273438 L 208.328125 215.273438 " fill-opacity="1" fill-rule="nonzero"/></g><g clip-path="url(#dbd810f320)"><path fill="#ffffff" d="M 319.421875 187.5 L 361.082031 187.5 L 361.082031 340.253906 L 319.421875 340.253906 Z M 305.535156 173.613281 L 305.535156 354.140625 L 374.96875 354.140625 L 374.96875 173.613281 L 305.535156 173.613281 " fill-opacity="1" fill-rule="nonzero"/></g><g clip-path="url(#9c279a717e)"><path fill="#ffffff" d="M 125.007812 270.820312 L 166.667969 270.820312 L 166.667969 340.253906 L 125.007812 340.253906 Z M 111.121094 256.933594 L 111.121094 354.140625 L 180.554688 354.140625 L 180.554688 256.933594 L 111.121094 256.933594 " fill-opacity="1" fill-rule="nonzero"/></g><g clip-path="url(#c46c6b7d5d)"><path fill="#ffffff" d="M 27.804688 298.59375 L 69.460938 298.59375 L 69.460938 340.253906 L 27.804688 340.253906 Z M 13.917969 284.707031 L 13.917969 354.140625 L 83.347656 354.140625 L 83.347656 284.707031 L 13.917969 284.707031 " fill-opacity="1" fill-rule="nonzero"/></g></svg>