<svg xmlns="http://www.w3.org/2000/svg" xmlns:xlink="http://www.w3.org/1999/xlink" width="500" zoomAndPan="magnify" viewBox="0 0 375 374.999991" height="500" preserveAspectRatio="xMidYMid meet" version="1.0"><defs><clipPath id="f3b28afedb"><path d="M 177 3.070312 L 198 3.070312 L 198 63 L 177 63 Z M 177 3.070312 " clip-rule="nonzero"/></clipPath><clipPath id="b28faf853b"><path d="M 3.070312 177 L 63 177 L 63 198 L 3.070312 198 Z M 3.070312 177 " clip-rule="nonzero"/></clipPath></defs><path fill="#ffffff" d="M 187.496094 90.1875 C 134 90.1875 90.1875 134 90.1875 187.496094 C 90.1875 240.988281 134 284.800781 187.496094 284.800781 C 240.988281 284.800781 284.800781 240.988281 284.800781 187.496094 C 284.800781 134 240.988281 90.1875 187.496094 90.1875 Z M 187.496094 264.421875 C 145.210938 264.421875 110.566406 229.777344 110.566406 187.496094 C 110.566406 145.210938 145.210938 110.566406 187.496094 110.566406 C 229.777344 110.566406 264.421875 145.210938 264.421875 187.496094 C 264.421875 229.777344 229.777344 264.421875 187.496094 264.421875 Z M 187.496094 264.421875 " fill-opacity="1" fill-rule="nonzero"/><g clip-path="url(#f3b28afedb)"><path fill="#ffffff" d="M 187.496094 62.167969 C 193.097656 62.167969 197.683594 57.582031 197.683594 51.976562 L 197.683594 13.257812 C 197.683594 7.65625 193.097656 3.070312 187.496094 3.070312 C 181.890625 3.070312 177.304688 7.65625 177.304688 13.257812 L 177.304688 51.976562 C 177.304688 57.582031 181.890625 62.167969 187.496094 62.167969 Z M 187.496094 62.167969 " fill-opacity="1" fill-rule="nonzero"/></g><path fill="#ffffff" d="M 187.496094 312.820312 C 181.890625 312.820312 177.304688 317.40625 177.304688 323.011719 L 177.304688 361.730469 C 177.304688 367.332031 181.890625 371.917969 187.496094 371.917969 C 193.097656 371.917969 197.683594 367.332031 197.683594 361.730469 L 197.683594 323.011719 C 197.683594 317.40625 193.097656 312.820312 187.496094 312.820312 Z M 187.496094 312.820312 " fill-opacity="1" fill-rule="nonzero"/><path fill="#ffffff" d="M 283.273438 101.90625 C 285.820312 101.90625 288.367188 100.886719 290.40625 98.847656 L 317.914062 71.335938 C 321.992188 67.261719 321.992188 61.148438 317.914062 57.074219 C 313.839844 52.996094 307.726562 52.996094 303.652344 57.074219 L 276.140625 84.582031 C 272.0625 88.660156 272.0625 94.773438 276.140625 98.847656 C 278.179688 100.886719 280.726562 101.90625 283.273438 101.90625 Z M 283.273438 101.90625 " fill-opacity="1" fill-rule="nonzero"/><path fill="#ffffff" d="M 84.582031 276.140625 L 57.074219 303.652344 C 52.996094 307.726562 52.996094 313.839844 57.074219 317.914062 C 59.109375 319.953125 61.65625 320.972656 64.207031 320.972656 C 66.753906 320.972656 69.300781 319.953125 71.335938 317.914062 L 98.847656 290.40625 C 102.925781 286.328125 102.925781 280.214844 98.847656 276.140625 C 94.773438 272.0625 88.660156 272.0625 84.582031 276.140625 Z M 84.582031 276.140625 " fill-opacity="1" fill-rule="nonzero"/><g clip-path="url(#b28faf853b)"><path fill="#ffffff" d="M 62.167969 187.496094 C 62.167969 181.890625 57.582031 177.304688 51.976562 177.304688 L 13.257812 177.304688 C 7.65625 177.304688 3.070312 181.890625 3.070312 187.496094 C 3.070312 193.097656 7.65625 197.683594 13.257812 197.683594 L 51.976562 197.683594 C 57.582031 197.683594 62.167969 193.097656 62.167969 187.496094 Z M 62.167969 187.496094 " fill-opacity="1" fill-rule="nonzero"/></g><path fill="#ffffff" d="M 361.730469 177.304688 L 323.011719 177.304688 C 317.40625 177.304688 312.820312 181.890625 312.820312 187.496094 C 312.820312 193.097656 317.40625 197.683594 323.011719 197.683594 L 361.730469 197.683594 C 367.332031 197.683594 371.917969 193.097656 371.917969 187.496094 C 371.917969 181.890625 367.332031 177.304688 361.730469 177.304688 Z M 361.730469 177.304688 " fill-opacity="1" fill-rule="nonzero"/><path fill="#ffffff" d="M 84.582031 98.847656 C 86.621094 100.886719 89.167969 101.90625 91.714844 101.90625 C 94.261719 101.90625 96.8125 100.886719 98.847656 98.847656 C 102.925781 94.773438 102.925781 88.660156 98.847656 84.582031 L 71.335938 57.074219 C 67.261719 52.996094 61.148438 52.996094 57.074219 57.074219 C 52.996094 61.148438 52.996094 67.261719 57.074219 71.335938 Z M 84.582031 98.847656 " fill-opacity="1" fill-rule="nonzero"/><path fill="#ffffff" d="M 290.40625 276.140625 C 286.328125 272.0625 280.214844 272.0625 276.140625 276.140625 C 272.0625 280.214844 272.0625 286.328125 276.140625 290.40625 L 303.652344 317.914062 C 305.6875 319.953125 308.234375 320.972656 310.78125 320.972656 C 313.332031 320.972656 315.878906 319.953125 317.914062 317.914062 C 321.992188 313.839844 321.992188 307.726562 317.914062 303.652344 Z M 290.40625 276.140625 " fill-opacity="1" fill-rule="nonzero"/></svg>