<svg xmlns="http://www.w3.org/2000/svg" xmlns:xlink="http://www.w3.org/1999/xlink" width="500" zoomAndPan="magnify" viewBox="0 0 375 374.999991" height="500" preserveAspectRatio="xMidYMid meet" version="1.0"><path fill="#000000" d="M 293.964844 155.210938 C 291.765625 153.542969 289.65625 151.769531 287.628906 149.890625 C 285.605469 148.015625 283.679688 146.042969 281.847656 143.976562 C 280.015625 141.910156 278.292969 139.761719 276.671875 137.523438 C 275.050781 135.289062 273.546875 132.976562 272.152344 130.59375 C 270.761719 128.210938 269.488281 125.765625 268.335938 123.253906 C 267.183594 120.746094 266.15625 118.1875 265.253906 115.578125 C 264.351562 112.96875 263.582031 110.320312 262.941406 107.636719 C 262.300781 104.949219 261.789062 102.238281 261.414062 99.503906 C 261.359375 99.101562 261.28125 98.703125 261.183594 98.3125 C 261.085938 97.917969 260.964844 97.53125 260.820312 97.152344 C 260.679688 96.773438 260.519531 96.402344 260.335938 96.039062 C 260.152344 95.679688 259.949219 95.328125 259.730469 94.988281 C 259.507812 94.648438 259.269531 94.320312 259.011719 94.007812 C 258.753906 93.695312 258.480469 93.398438 258.191406 93.113281 C 257.902344 92.832031 257.597656 92.566406 257.277344 92.316406 C 256.957031 92.066406 256.625 91.835938 256.28125 91.621094 C 255.933594 91.410156 255.578125 91.214844 255.214844 91.042969 C 254.847656 90.871094 254.472656 90.714844 254.089844 90.585938 C 253.707031 90.453125 253.316406 90.339844 252.921875 90.25 C 252.527344 90.164062 252.128906 90.09375 251.726562 90.050781 C 251.324219 90.003906 250.917969 89.980469 250.511719 89.980469 C 250.109375 89.980469 249.703125 90 249.300781 90.042969 C 248.898438 90.085938 248.5 90.152344 248.101562 90.242188 C 247.707031 90.328125 247.316406 90.4375 246.933594 90.570312 C 240.851562 92.949219 235.21875 96.128906 230.042969 100.109375 C 224.863281 104.09375 220.34375 108.71875 216.484375 113.988281 C 212.898438 93.683594 217.632812 60.445312 264.527344 20.238281 C 264.976562 19.851562 265.394531 19.433594 265.773438 18.980469 C 266.15625 18.527344 266.5 18.046875 266.800781 17.539062 C 267.105469 17.03125 267.367188 16.5 267.585938 15.949219 C 267.804688 15.398438 267.980469 14.835938 268.105469 14.257812 C 268.234375 13.679688 268.316406 13.09375 268.347656 12.503906 C 268.382812 11.910156 268.371094 11.320312 268.308594 10.730469 C 268.246094 10.144531 268.140625 9.5625 267.984375 8.992188 C 267.828125 8.417969 267.628906 7.863281 267.386719 7.324219 C 267.140625 6.785156 266.855469 6.265625 266.527344 5.773438 C 266.199219 5.28125 265.835938 4.816406 265.433594 4.382812 C 265.03125 3.945312 264.597656 3.546875 264.132812 3.183594 C 263.664062 2.816406 263.171875 2.492188 262.652344 2.207031 C 262.132812 1.921875 261.597656 1.679688 261.039062 1.480469 C 260.480469 1.28125 259.910156 1.128906 259.328125 1.019531 C 258.746094 0.914062 258.160156 0.855469 257.566406 0.84375 C 256.976562 0.828125 256.386719 0.863281 255.800781 0.949219 L 240.371094 3.179688 C 226.855469 5.953125 213.839844 10.238281 201.324219 16.042969 C 196.460938 18.382812 191.710938 20.933594 187.070312 23.691406 C 182.429688 26.449219 177.921875 29.402344 173.539062 32.558594 C 169.160156 35.710938 164.925781 39.050781 160.835938 42.574219 C 156.75 46.097656 152.820312 49.792969 149.058594 53.664062 C 145.292969 57.53125 141.707031 61.558594 138.296875 65.742188 C 134.882812 69.925781 131.664062 74.25 128.628906 78.71875 C 125.597656 83.183594 122.765625 87.773438 120.136719 92.488281 C 117.507812 97.203125 115.089844 102.023438 112.882812 106.949219 C 105.628906 122.195312 99.875 137.992188 95.625 154.332031 C 94.257812 159.800781 93.195312 165.328125 92.445312 170.917969 C 88.390625 160.179688 86.136719 149.078125 85.679688 137.613281 C 85.652344 137.03125 85.582031 136.457031 85.464844 135.886719 C 85.347656 135.316406 85.1875 134.757812 84.984375 134.210938 C 84.78125 133.667969 84.535156 133.140625 84.246094 132.636719 C 83.957031 132.128906 83.632812 131.648438 83.269531 131.195312 C 82.90625 130.742188 82.507812 130.316406 82.078125 129.925781 C 81.644531 129.535156 81.1875 129.179688 80.699219 128.859375 C 80.214844 128.542969 79.703125 128.261719 79.171875 128.023438 C 78.640625 127.785156 78.097656 127.589844 77.535156 127.441406 C 76.972656 127.289062 76.402344 127.183594 75.824219 127.121094 C 75.246094 127.058594 74.664062 127.042969 74.082031 127.074219 C 73.503906 127.105469 72.925781 127.179688 72.359375 127.300781 C 71.789062 127.421875 71.234375 127.589844 70.691406 127.796875 C 70.148438 128.007812 69.625 128.257812 69.121094 128.550781 C 68.617188 128.84375 68.140625 129.171875 67.6875 129.539062 C 67.238281 129.910156 66.820312 130.308594 66.429688 130.742188 C 66.042969 131.179688 65.691406 131.640625 65.378906 132.128906 L 54.28125 151.421875 C 50.96875 156.921875 48.027344 162.617188 45.460938 168.503906 C 42.894531 174.386719 40.722656 180.417969 38.945312 186.589844 C 37.167969 192.757812 35.804688 199.019531 34.847656 205.371094 C 33.890625 211.71875 33.355469 218.105469 33.234375 224.527344 C 33.238281 226.992188 33.300781 229.460938 33.425781 231.921875 C 33.550781 234.386719 33.734375 236.847656 33.976562 239.300781 C 34.222656 241.757812 34.527344 244.207031 34.890625 246.644531 C 35.257812 249.085938 35.679688 251.515625 36.164062 253.9375 C 36.644531 256.355469 37.1875 258.761719 37.789062 261.15625 C 38.390625 263.546875 39.050781 265.925781 39.765625 268.285156 C 40.484375 270.644531 41.257812 272.988281 42.089844 275.308594 C 42.921875 277.632812 43.8125 279.933594 44.757812 282.214844 C 45.699219 284.492188 46.699219 286.746094 47.757812 288.976562 C 48.8125 291.207031 49.921875 293.410156 51.082031 295.585938 C 52.246094 297.761719 53.460938 299.910156 54.730469 302.023438 C 55.996094 304.140625 57.316406 306.226562 58.6875 308.277344 C 60.054688 310.328125 61.476562 312.347656 62.945312 314.328125 C 64.414062 316.308594 65.929688 318.253906 67.492188 320.164062 C 69.058594 322.070312 70.667969 323.941406 72.324219 325.769531 C 73.976562 327.597656 75.675781 329.386719 77.421875 331.132812 C 79.164062 332.878906 80.949219 334.578125 82.773438 336.238281 C 84.601562 337.894531 86.464844 339.507812 88.371094 341.074219 C 90.277344 342.644531 92.21875 344.164062 94.199219 345.632812 C 96.179688 347.105469 98.195312 348.527344 100.242188 349.902344 C 102.292969 351.273438 104.375 352.597656 106.488281 353.867188 C 108.601562 355.140625 110.746094 356.359375 112.917969 357.523438 C 115.09375 358.691406 117.292969 359.804688 119.523438 360.863281 C 121.75 361.921875 124.003906 362.921875 126.28125 363.871094 C 128.558594 364.820312 130.855469 365.710938 133.175781 366.546875 C 135.5 367.382812 137.839844 368.160156 140.199219 368.878906 C 142.554688 369.601562 144.933594 370.265625 147.324219 370.867188 C 149.714844 371.472656 152.121094 372.019531 154.539062 372.503906 C 156.957031 372.992188 159.382812 373.417969 161.824219 373.785156 C 164.261719 374.15625 166.710938 374.460938 169.164062 374.710938 C 171.617188 374.957031 174.074219 375.144531 176.539062 375.273438 C 179.003906 375.398438 181.46875 375.46875 183.933594 375.472656 L 184.339844 375.472656 C 185.074219 375.472656 185.804688 375.402344 186.527344 375.253906 C 187.246094 375.109375 187.945312 374.894531 188.625 374.609375 C 189.304688 374.324219 189.945312 373.972656 190.554688 373.558594 C 191.164062 373.144531 191.722656 372.671875 192.238281 372.148438 C 192.75 371.621094 193.207031 371.046875 193.605469 370.429688 C 194.007812 369.8125 194.339844 369.160156 194.609375 368.476562 C 194.878906 367.789062 195.078125 367.085938 195.207031 366.359375 C 195.332031 365.636719 195.386719 364.90625 195.371094 364.167969 L 195.371094 222.023438 L 220.949219 247.609375 C 221.472656 248.066406 222.03125 248.46875 222.628906 248.820312 C 223.226562 249.167969 223.851562 249.460938 224.503906 249.695312 C 225.160156 249.925781 225.828125 250.097656 226.511719 250.203125 C 227.195312 250.3125 227.886719 250.351562 228.578125 250.328125 C 229.273438 250.304688 229.957031 250.21875 230.632812 250.066406 C 231.308594 249.914062 231.964844 249.699219 232.601562 249.421875 C 233.238281 249.148438 233.839844 248.8125 234.414062 248.425781 C 234.988281 248.035156 235.519531 247.59375 236.007812 247.105469 C 236.5 246.613281 236.9375 246.082031 237.328125 245.507812 C 237.71875 244.933594 238.050781 244.332031 238.328125 243.695312 C 238.605469 243.058594 238.816406 242.402344 238.96875 241.726562 C 239.121094 241.050781 239.210938 240.363281 239.234375 239.671875 C 239.257812 238.976562 239.214844 238.289062 239.109375 237.605469 C 239 236.917969 238.832031 236.25 238.597656 235.597656 C 238.367188 234.945312 238.074219 234.316406 237.722656 233.71875 C 237.375 233.121094 236.96875 232.5625 236.511719 232.039062 L 192.257812 187.769531 C 191.222656 186.722656 190.023438 185.917969 188.660156 185.355469 C 187.296875 184.792969 185.882812 184.511719 184.40625 184.523438 C 182.769531 184.523438 181.210938 184.871094 179.730469 185.570312 C 178.25 186.269531 176.992188 187.25 175.949219 188.515625 L 132.4375 232.039062 C 131.871094 232.535156 131.355469 233.085938 130.902344 233.6875 C 130.445312 234.292969 130.054688 234.933594 129.730469 235.617188 C 129.410156 236.300781 129.15625 237.007812 128.980469 237.742188 C 128.800781 238.476562 128.699219 239.222656 128.675781 239.976562 C 128.648438 240.730469 128.699219 241.480469 128.828125 242.226562 C 128.957031 242.972656 129.160156 243.695312 129.4375 244.398438 C 129.714844 245.101562 130.0625 245.765625 130.476562 246.398438 C 130.890625 247.03125 131.363281 247.613281 131.898438 248.148438 C 132.433594 248.683594 133.015625 249.15625 133.648438 249.570312 C 134.277344 249.984375 134.945312 250.332031 135.648438 250.609375 C 136.351562 250.886719 137.074219 251.089844 137.820312 251.21875 C 138.5625 251.347656 139.3125 251.398438 140.066406 251.375 C 140.820312 251.347656 141.566406 251.246094 142.300781 251.066406 C 143.035156 250.890625 143.742188 250.636719 144.425781 250.316406 C 145.109375 249.992188 145.75 249.601562 146.351562 249.144531 C 146.953125 248.6875 147.503906 248.175781 148 247.609375 L 173.308594 222.023438 L 173.308594 353 C 171.316406 352.835938 169.328125 352.625 167.34375 352.367188 C 165.359375 352.109375 163.382812 351.808594 161.414062 351.457031 C 159.441406 351.109375 157.480469 350.714844 155.53125 350.273438 C 153.578125 349.832031 151.636719 349.347656 149.707031 348.816406 C 147.78125 348.285156 145.863281 347.710938 143.960938 347.089844 C 142.058594 346.46875 140.171875 345.804688 138.300781 345.097656 C 136.429688 344.390625 134.574219 343.640625 132.738281 342.847656 C 130.902344 342.050781 129.085938 341.214844 127.289062 340.335938 C 125.492188 339.460938 123.714844 338.539062 121.960938 337.578125 C 120.203125 336.617188 118.472656 335.617188 116.765625 334.574219 C 115.054688 333.53125 113.371094 332.453125 111.714844 331.332031 C 110.058594 330.210938 108.425781 329.054688 106.820312 327.859375 C 105.21875 326.660156 103.640625 325.429688 102.09375 324.160156 C 100.546875 322.890625 99.03125 321.585938 97.546875 320.246094 C 96.058594 318.90625 94.605469 317.53125 93.183594 316.125 C 91.761719 314.71875 90.371094 313.277344 89.015625 311.804688 C 87.660156 310.335938 86.339844 308.832031 85.054688 307.296875 C 83.769531 305.765625 82.519531 304.203125 81.304688 302.609375 C 80.09375 301.019531 78.917969 299.398438 77.78125 297.753906 C 76.644531 296.109375 75.542969 294.4375 74.484375 292.738281 C 73.425781 291.039062 72.40625 289.320312 71.425781 287.574219 C 70.445312 285.828125 69.507812 284.0625 68.609375 282.273438 C 67.710938 280.484375 66.855469 278.679688 66.042969 276.847656 C 65.226562 275.019531 64.457031 273.175781 63.730469 271.3125 C 63 269.445312 62.316406 267.566406 61.675781 265.671875 C 61.035156 263.773438 60.441406 261.863281 59.890625 259.941406 C 59.339844 258.015625 58.832031 256.082031 58.371094 254.132812 C 57.910156 252.1875 57.492188 250.230469 57.121094 248.261719 C 56.75 246.296875 56.425781 244.324219 56.148438 242.339844 C 55.867188 240.359375 55.636719 238.371094 55.449219 236.378906 C 55.261719 234.386719 55.125 232.390625 55.03125 230.390625 C 54.9375 228.390625 54.890625 226.390625 54.890625 224.390625 C 55.042969 214.875 56.296875 205.511719 58.652344 196.292969 C 61.007812 187.074219 64.398438 178.253906 68.828125 169.832031 C 70.949219 177.445312 73.753906 184.800781 77.246094 191.890625 C 80.738281 198.980469 84.859375 205.683594 89.601562 212.003906 C 90.253906 212.765625 90.992188 213.425781 91.820312 213.984375 C 92.648438 214.546875 93.539062 214.984375 94.488281 215.300781 C 95.433594 215.621094 96.410156 215.804688 97.40625 215.859375 C 98.40625 215.914062 99.394531 215.832031 100.371094 215.617188 C 101.347656 215.402344 102.277344 215.058594 103.160156 214.589844 C 104.046875 214.121094 104.851562 213.542969 105.578125 212.855469 C 106.304688 212.167969 106.925781 211.394531 107.441406 210.539062 C 107.957031 209.679688 108.351562 208.769531 108.617188 207.808594 C 110.578125 199.503906 112 191.109375 112.882812 182.625 C 113.648438 174.894531 114.910156 167.246094 116.671875 159.679688 C 120.582031 144.714844 125.859375 130.253906 132.503906 116.289062 C 134.457031 111.945312 136.59375 107.695312 138.917969 103.539062 C 141.242188 99.382812 143.742188 95.332031 146.421875 91.394531 C 149.101562 87.457031 151.945312 83.644531 154.957031 79.957031 C 157.972656 76.269531 161.136719 72.71875 164.460938 69.308594 C 167.785156 65.894531 171.25 62.636719 174.859375 59.53125 C 178.46875 56.421875 182.207031 53.480469 186.074219 50.699219 C 189.941406 47.921875 193.921875 45.316406 198.015625 42.886719 C 202.109375 40.457031 206.304688 38.210938 210.597656 36.144531 C 214.722656 34.25 218.851562 32.558594 223.046875 31 C 168.167969 97.609375 207.078125 147.5625 207.550781 148.375 C 208.203125 149.183594 208.953125 149.886719 209.804688 150.484375 C 210.652344 151.078125 211.570312 151.546875 212.550781 151.882812 C 213.535156 152.222656 214.542969 152.414062 215.582031 152.46875 C 216.617188 152.519531 217.640625 152.429688 218.652344 152.191406 C 219.664062 151.953125 220.621094 151.582031 221.527344 151.074219 C 222.433594 150.566406 223.25 149.945312 223.980469 149.203125 C 224.710938 148.464844 225.324219 147.640625 225.820312 146.730469 C 226.316406 145.816406 226.679688 144.855469 226.90625 143.839844 C 227.449219 141.308594 228.207031 138.84375 229.175781 136.445312 C 230.144531 134.046875 231.3125 131.746094 232.679688 129.550781 C 234.046875 127.351562 235.589844 125.289062 237.3125 123.355469 C 239.039062 121.425781 240.914062 119.65625 242.941406 118.050781 C 244.527344 123.460938 246.527344 128.714844 248.949219 133.808594 C 251.367188 138.898438 254.175781 143.769531 257.371094 148.414062 C 260.566406 153.058594 264.109375 157.421875 268 161.503906 C 271.890625 165.582031 276.078125 169.332031 280.566406 172.742188 C 282.1875 174.046875 283.753906 175.40625 285.273438 176.828125 C 286.789062 178.25 288.25 179.726562 289.65625 181.257812 C 291.058594 182.789062 292.40625 184.375 293.691406 186.007812 C 294.976562 187.640625 296.199219 189.320312 297.355469 191.046875 C 298.515625 192.773438 299.605469 194.539062 300.632812 196.351562 C 301.65625 198.160156 302.609375 200.003906 303.496094 201.886719 C 304.378906 203.765625 305.191406 205.679688 305.933594 207.621094 C 306.671875 209.5625 307.339844 211.53125 307.929688 213.523438 C 308.519531 215.519531 309.035156 217.53125 309.476562 219.5625 C 309.914062 221.59375 310.273438 223.640625 310.558594 225.699219 C 310.84375 227.761719 311.046875 229.828125 311.175781 231.902344 C 311.304688 233.976562 311.351562 236.054688 311.324219 238.132812 C 311.292969 240.210938 311.183594 242.289062 311 244.359375 C 310.8125 246.429688 310.546875 248.488281 310.203125 250.539062 C 309.859375 252.589844 309.441406 254.625 308.945312 256.644531 C 308.449219 258.664062 307.875 260.660156 307.226562 262.636719 C 304.019531 273.453125 299.507812 283.695312 293.695312 293.367188 C 293.382812 293.984375 293.132812 294.625 292.941406 295.289062 C 292.75 295.953125 292.621094 296.628906 292.558594 297.316406 C 292.492188 298.003906 292.492188 298.691406 292.558594 299.382812 C 292.625 300.070312 292.753906 300.746094 292.945312 301.410156 C 293.136719 302.074219 293.390625 302.714844 293.703125 303.328125 C 294.015625 303.945312 294.382812 304.527344 294.804688 305.074219 C 295.226562 305.621094 295.695312 306.125 296.210938 306.585938 C 296.726562 307.042969 297.28125 307.453125 297.875 307.808594 C 298.46875 308.160156 299.089844 308.457031 299.738281 308.695312 C 300.386719 308.933594 301.050781 309.109375 301.734375 309.222656 C 302.414062 309.335938 303.101562 309.386719 303.792969 309.371094 C 304.480469 309.355469 305.164062 309.273438 305.839844 309.128906 C 306.515625 308.984375 307.171875 308.78125 307.808594 308.511719 C 308.449219 308.246094 309.054688 307.921875 309.628906 307.539062 C 310.207031 307.15625 310.742188 306.726562 311.238281 306.242188 C 311.730469 305.761719 312.175781 305.238281 312.574219 304.671875 C 319.578125 292.890625 324.96875 280.414062 328.746094 267.238281 C 329.511719 264.753906 330.179688 262.246094 330.757812 259.714844 C 331.332031 257.179688 331.8125 254.628906 332.199219 252.058594 C 332.582031 249.492188 332.871094 246.910156 333.0625 244.320312 C 333.253906 241.730469 333.347656 239.132812 333.34375 236.535156 C 333.34375 233.9375 333.242188 231.34375 333.042969 228.753906 C 332.847656 226.164062 332.550781 223.582031 332.160156 221.015625 C 331.769531 218.445312 331.28125 215.898438 330.699219 213.363281 C 330.117188 210.832031 329.441406 208.328125 328.671875 205.84375 C 327.902344 203.363281 327.039062 200.914062 326.085938 198.5 C 325.132812 196.082031 324.089844 193.707031 322.957031 191.367188 C 321.824219 189.03125 320.605469 186.738281 319.300781 184.492188 C 317.996094 182.242188 316.609375 180.050781 315.140625 177.90625 C 313.671875 175.761719 312.125 173.679688 310.5 171.652344 C 308.875 169.625 307.175781 167.664062 305.40625 165.761719 C 303.632812 163.863281 301.792969 162.035156 299.882812 160.273438 C 297.972656 158.511719 296 156.824219 293.964844 155.210938 Z M 293.964844 155.210938 " fill-opacity="1" fill-rule="nonzero"/></svg>