<svg xmlns="http://www.w3.org/2000/svg" xmlns:xlink="http://www.w3.org/1999/xlink" width="500" zoomAndPan="magnify" viewBox="0 0 375 374.999991" height="500" preserveAspectRatio="xMidYMid meet" version="1.0"><path fill="#ffffff" d="M 294.042969 155.210938 C 291.84375 153.542969 289.730469 151.769531 287.707031 149.890625 C 285.683594 148.015625 283.753906 146.042969 281.921875 143.976562 C 280.089844 141.910156 278.367188 139.761719 276.746094 137.523438 C 275.125 135.289062 273.617188 132.976562 272.226562 130.59375 C 270.832031 128.210938 269.558594 125.765625 268.40625 123.253906 C 267.253906 120.746094 266.226562 118.1875 265.324219 115.578125 C 264.421875 112.96875 263.652344 110.320312 263.011719 107.636719 C 262.367188 104.949219 261.859375 102.238281 261.484375 99.503906 C 261.429688 99.101562 261.351562 98.703125 261.253906 98.3125 C 261.152344 97.917969 261.03125 97.53125 260.890625 97.152344 C 260.75 96.773438 260.585938 96.402344 260.402344 96.039062 C 260.222656 95.679688 260.019531 95.328125 259.796875 94.988281 C 259.578125 94.648438 259.335938 94.320312 259.078125 94.007812 C 258.824219 93.695312 258.550781 93.398438 258.257812 93.113281 C 257.96875 92.832031 257.664062 92.566406 257.34375 92.316406 C 257.023438 92.066406 256.691406 91.835938 256.347656 91.621094 C 256.003906 91.410156 255.648438 91.214844 255.28125 91.042969 C 254.914062 90.871094 254.539062 90.714844 254.15625 90.585938 C 253.773438 90.453125 253.382812 90.339844 252.988281 90.25 C 252.59375 90.164062 252.195312 90.09375 251.792969 90.050781 C 251.386719 90.003906 250.984375 89.980469 250.578125 89.980469 C 250.171875 89.980469 249.769531 90 249.367188 90.042969 C 248.964844 90.085938 248.5625 90.152344 248.167969 90.242188 C 247.773438 90.328125 247.382812 90.4375 247 90.570312 C 240.914062 92.949219 235.28125 96.128906 230.101562 100.109375 C 224.921875 104.09375 220.402344 108.71875 216.539062 113.988281 C 212.953125 93.683594 217.691406 60.445312 264.597656 20.238281 C 265.046875 19.851562 265.460938 19.433594 265.84375 18.980469 C 266.226562 18.527344 266.570312 18.046875 266.871094 17.539062 C 267.175781 17.03125 267.4375 16.5 267.65625 15.949219 C 267.875 15.398438 268.050781 14.835938 268.175781 14.257812 C 268.304688 13.679688 268.386719 13.09375 268.421875 12.503906 C 268.453125 11.910156 268.441406 11.320312 268.378906 10.730469 C 268.316406 10.144531 268.210938 9.5625 268.054688 8.992188 C 267.898438 8.417969 267.699219 7.863281 267.457031 7.324219 C 267.210938 6.785156 266.925781 6.265625 266.597656 5.773438 C 266.269531 5.28125 265.90625 4.816406 265.503906 4.382812 C 265.101562 3.945312 264.667969 3.546875 264.203125 3.183594 C 263.734375 2.816406 263.242188 2.492188 262.722656 2.207031 C 262.203125 1.921875 261.664062 1.679688 261.109375 1.480469 C 260.550781 1.28125 259.980469 1.128906 259.398438 1.019531 C 258.8125 0.914062 258.226562 0.855469 257.632812 0.84375 C 257.042969 0.828125 256.453125 0.863281 255.867188 0.949219 L 240.433594 3.179688 C 226.914062 5.953125 213.894531 10.238281 201.375 16.042969 C 196.511719 18.382812 191.757812 20.933594 187.117188 23.691406 C 182.476562 26.449219 177.964844 29.402344 173.582031 32.558594 C 169.199219 35.710938 164.964844 39.050781 160.875 42.574219 C 156.785156 46.097656 152.859375 49.792969 149.09375 53.664062 C 145.328125 57.53125 141.738281 61.558594 138.328125 65.742188 C 134.914062 69.925781 131.691406 74.25 128.660156 78.71875 C 125.625 83.183594 122.792969 87.773438 120.164062 92.488281 C 117.535156 97.203125 115.113281 102.023438 112.90625 106.949219 C 105.652344 122.195312 99.898438 137.992188 95.644531 154.332031 C 94.273438 159.800781 93.214844 165.328125 92.464844 170.917969 C 88.410156 160.179688 86.152344 149.078125 85.695312 137.613281 C 85.667969 137.03125 85.597656 136.457031 85.480469 135.886719 C 85.367188 135.316406 85.207031 134.757812 85 134.210938 C 84.796875 133.667969 84.550781 133.140625 84.261719 132.636719 C 83.972656 132.128906 83.648438 131.648438 83.285156 131.195312 C 82.921875 130.742188 82.523438 130.316406 82.09375 129.925781 C 81.660156 129.535156 81.203125 129.179688 80.714844 128.859375 C 80.226562 128.542969 79.71875 128.261719 79.1875 128.023438 C 78.65625 127.785156 78.109375 127.589844 77.546875 127.441406 C 76.984375 127.289062 76.414062 127.183594 75.835938 127.121094 C 75.257812 127.058594 74.675781 127.042969 74.097656 127.074219 C 73.515625 127.105469 72.941406 127.179688 72.371094 127.300781 C 71.800781 127.421875 71.246094 127.589844 70.703125 127.796875 C 70.160156 128.007812 69.636719 128.257812 69.132812 128.550781 C 68.628906 128.84375 68.152344 129.171875 67.699219 129.539062 C 67.25 129.910156 66.828125 130.308594 66.441406 130.742188 C 66.054688 131.179688 65.703125 131.640625 65.386719 132.128906 L 54.285156 151.421875 C 50.972656 156.921875 48.03125 162.617188 45.464844 168.503906 C 42.898438 174.386719 40.726562 180.417969 38.949219 186.589844 C 37.171875 192.757812 35.804688 199.019531 34.847656 205.371094 C 33.890625 211.71875 33.355469 218.105469 33.234375 224.527344 C 33.238281 226.992188 33.300781 229.460938 33.425781 231.921875 C 33.550781 234.386719 33.734375 236.847656 33.980469 239.300781 C 34.222656 241.757812 34.527344 244.207031 34.894531 246.644531 C 35.257812 249.085938 35.679688 251.515625 36.164062 253.9375 C 36.648438 256.355469 37.191406 258.761719 37.792969 261.15625 C 38.394531 263.546875 39.050781 265.925781 39.769531 268.285156 C 40.488281 270.644531 41.261719 272.988281 42.09375 275.308594 C 42.925781 277.632812 43.816406 279.933594 44.761719 282.214844 C 45.707031 284.492188 46.707031 286.746094 47.761719 288.976562 C 48.816406 291.207031 49.925781 293.410156 51.089844 295.585938 C 52.253906 297.761719 53.46875 299.910156 54.738281 302.023438 C 56.003906 304.140625 57.324219 306.226562 58.695312 308.277344 C 60.066406 310.328125 61.484375 312.347656 62.953125 314.328125 C 64.421875 316.308594 65.941406 318.253906 67.503906 320.164062 C 69.070312 322.070312 70.679688 323.941406 72.335938 325.769531 C 73.992188 327.597656 75.691406 329.386719 77.433594 331.132812 C 79.179688 332.878906 80.964844 334.578125 82.789062 336.238281 C 84.617188 337.894531 86.484375 339.507812 88.390625 341.074219 C 90.296875 342.644531 92.238281 344.164062 94.21875 345.632812 C 96.199219 347.105469 98.214844 348.527344 100.261719 349.902344 C 102.3125 351.273438 104.394531 352.597656 106.511719 353.867188 C 108.625 355.140625 110.769531 356.359375 112.945312 357.523438 C 115.117188 358.691406 117.320312 359.804688 119.546875 360.863281 C 121.777344 361.921875 124.03125 362.921875 126.308594 363.871094 C 128.585938 364.820312 130.886719 365.710938 133.207031 366.546875 C 135.53125 367.382812 137.871094 368.160156 140.230469 368.878906 C 142.589844 369.601562 144.964844 370.265625 147.359375 370.867188 C 149.75 371.472656 152.15625 372.019531 154.574219 372.503906 C 156.992188 372.992188 159.421875 373.417969 161.863281 373.785156 C 164.300781 374.15625 166.75 374.460938 169.203125 374.710938 C 171.660156 374.957031 174.117188 375.144531 176.582031 375.273438 C 179.046875 375.398438 181.511719 375.46875 183.980469 375.472656 L 184.386719 375.472656 C 185.121094 375.472656 185.851562 375.402344 186.574219 375.253906 C 187.292969 375.109375 187.992188 374.894531 188.671875 374.609375 C 189.351562 374.324219 189.992188 373.972656 190.601562 373.558594 C 191.210938 373.144531 191.769531 372.671875 192.285156 372.148438 C 192.800781 371.621094 193.257812 371.046875 193.65625 370.429688 C 194.054688 369.8125 194.390625 369.160156 194.660156 368.476562 C 194.929688 367.789062 195.125 367.085938 195.253906 366.359375 C 195.382812 365.636719 195.4375 364.90625 195.417969 364.167969 L 195.417969 222.023438 L 221.007812 247.609375 C 221.527344 248.066406 222.089844 248.46875 222.6875 248.820312 C 223.285156 249.167969 223.910156 249.460938 224.5625 249.695312 C 225.214844 249.925781 225.886719 250.097656 226.570312 250.203125 C 227.253906 250.3125 227.945312 250.351562 228.636719 250.328125 C 229.332031 250.304688 230.015625 250.21875 230.691406 250.066406 C 231.367188 249.914062 232.023438 249.699219 232.660156 249.421875 C 233.296875 249.148438 233.902344 248.8125 234.476562 248.425781 C 235.046875 248.035156 235.578125 247.59375 236.070312 247.105469 C 236.5625 246.613281 237 246.082031 237.390625 245.507812 C 237.78125 244.933594 238.113281 244.332031 238.390625 243.695312 C 238.664062 243.058594 238.878906 242.402344 239.03125 241.726562 C 239.183594 241.050781 239.273438 240.363281 239.296875 239.671875 C 239.320312 238.976562 239.277344 238.289062 239.171875 237.605469 C 239.0625 236.917969 238.894531 236.25 238.660156 235.597656 C 238.429688 234.945312 238.136719 234.316406 237.785156 233.71875 C 237.433594 233.121094 237.03125 232.5625 236.574219 232.039062 L 192.304688 187.769531 C 191.269531 186.722656 190.070312 185.917969 188.707031 185.355469 C 187.34375 184.792969 185.929688 184.511719 184.453125 184.523438 C 182.816406 184.523438 181.257812 184.871094 179.777344 185.570312 C 178.296875 186.269531 177.035156 187.25 175.992188 188.515625 L 132.46875 232.039062 C 131.898438 232.535156 131.386719 233.085938 130.929688 233.6875 C 130.476562 234.292969 130.085938 234.933594 129.761719 235.617188 C 129.4375 236.300781 129.1875 237.007812 129.007812 237.742188 C 128.832031 238.476562 128.730469 239.222656 128.703125 239.976562 C 128.679688 240.730469 128.730469 241.480469 128.859375 242.226562 C 128.988281 242.972656 129.191406 243.695312 129.46875 244.398438 C 129.746094 245.101562 130.089844 245.765625 130.503906 246.398438 C 130.921875 247.03125 131.394531 247.613281 131.929688 248.148438 C 132.464844 248.683594 133.046875 249.15625 133.675781 249.570312 C 134.308594 249.984375 134.976562 250.332031 135.679688 250.609375 C 136.382812 250.886719 137.105469 251.089844 137.851562 251.21875 C 138.59375 251.347656 139.34375 251.398438 140.101562 251.375 C 140.855469 251.347656 141.601562 251.246094 142.335938 251.066406 C 143.066406 250.890625 143.777344 250.636719 144.460938 250.316406 C 145.140625 249.992188 145.785156 249.601562 146.386719 249.144531 C 146.988281 248.6875 147.539062 248.175781 148.035156 247.609375 L 173.351562 222.023438 L 173.351562 353 C 171.359375 352.835938 169.367188 352.625 167.382812 352.367188 C 165.398438 352.109375 163.421875 351.808594 161.453125 351.457031 C 159.480469 351.109375 157.519531 350.714844 155.566406 350.273438 C 153.613281 349.832031 151.675781 349.347656 149.746094 348.816406 C 147.816406 348.285156 145.898438 347.710938 143.996094 347.089844 C 142.09375 346.46875 140.207031 345.804688 138.332031 345.097656 C 136.460938 344.390625 134.605469 343.640625 132.769531 342.847656 C 130.933594 342.050781 129.113281 341.214844 127.316406 340.335938 C 125.519531 339.460938 123.742188 338.539062 121.988281 337.578125 C 120.230469 336.617188 118.5 335.617188 116.789062 334.574219 C 115.082031 333.53125 113.398438 332.453125 111.738281 331.332031 C 110.082031 330.210938 108.449219 329.054688 106.84375 327.859375 C 105.238281 326.660156 103.664062 325.429688 102.117188 324.160156 C 100.570312 322.890625 99.050781 321.585938 97.566406 320.246094 C 96.078125 318.90625 94.625 317.53125 93.199219 316.125 C 91.777344 314.71875 90.390625 313.277344 89.03125 311.804688 C 87.675781 310.335938 86.355469 308.832031 85.070312 307.296875 C 83.785156 305.765625 82.535156 304.203125 81.320312 302.609375 C 80.109375 301.019531 78.933594 299.398438 77.792969 297.753906 C 76.65625 296.109375 75.558594 294.4375 74.496094 292.738281 C 73.4375 291.039062 72.417969 289.320312 71.4375 287.574219 C 70.457031 285.828125 69.519531 284.0625 68.621094 282.273438 C 67.722656 280.484375 66.867188 278.679688 66.050781 276.847656 C 65.238281 275.019531 64.46875 273.175781 63.738281 271.3125 C 63.011719 269.445312 62.328125 267.566406 61.6875 265.671875 C 61.046875 263.773438 60.449219 261.863281 59.898438 259.941406 C 59.347656 258.015625 58.839844 256.082031 58.378906 254.132812 C 57.917969 252.1875 57.5 250.230469 57.128906 248.261719 C 56.757812 246.296875 56.433594 244.324219 56.15625 242.339844 C 55.875 240.359375 55.644531 238.371094 55.457031 236.378906 C 55.269531 234.386719 55.132812 232.390625 55.039062 230.390625 C 54.945312 228.390625 54.898438 226.390625 54.894531 224.390625 C 55.050781 214.875 56.304688 205.511719 58.660156 196.292969 C 61.015625 187.074219 64.410156 178.253906 68.839844 169.832031 C 70.960938 177.445312 73.765625 184.800781 77.261719 191.890625 C 80.753906 198.980469 84.875 205.683594 89.621094 212.003906 C 90.269531 212.765625 91.007812 213.425781 91.839844 213.984375 C 92.667969 214.546875 93.558594 214.984375 94.503906 215.300781 C 95.453125 215.621094 96.429688 215.804688 97.425781 215.859375 C 98.425781 215.914062 99.414062 215.832031 100.390625 215.617188 C 101.367188 215.402344 102.300781 215.058594 103.183594 214.589844 C 104.066406 214.121094 104.871094 213.542969 105.597656 212.855469 C 106.324219 212.167969 106.945312 211.394531 107.464844 210.539062 C 107.980469 209.679688 108.371094 208.769531 108.640625 207.808594 C 110.601562 199.503906 112.023438 191.109375 112.90625 182.625 C 113.671875 174.894531 114.9375 167.246094 116.695312 159.679688 C 120.605469 144.714844 125.886719 130.253906 132.535156 116.289062 C 134.488281 111.945312 136.625 107.695312 138.949219 103.539062 C 141.277344 99.382812 143.777344 95.332031 146.457031 91.394531 C 149.136719 87.457031 151.980469 83.644531 154.996094 79.957031 C 158.007812 76.269531 161.175781 72.71875 164.503906 69.308594 C 167.828125 65.894531 171.292969 62.636719 174.902344 59.53125 C 178.511719 56.421875 182.253906 53.480469 186.121094 50.699219 C 189.988281 47.921875 193.96875 45.316406 198.066406 42.886719 C 202.164062 40.457031 206.355469 38.210938 210.648438 36.144531 C 214.777344 34.25 218.90625 32.558594 223.105469 31 C 168.207031 97.609375 207.128906 147.5625 207.605469 148.375 C 208.253906 149.183594 209.007812 149.886719 209.859375 150.484375 C 210.707031 151.078125 211.625 151.546875 212.605469 151.882812 C 213.589844 152.222656 214.597656 152.414062 215.636719 152.46875 C 216.671875 152.519531 217.699219 152.429688 218.707031 152.191406 C 219.71875 151.953125 220.679688 151.582031 221.585938 151.074219 C 222.492188 150.566406 223.308594 149.945312 224.039062 149.203125 C 224.769531 148.464844 225.382812 147.640625 225.878906 146.730469 C 226.375 145.816406 226.738281 144.855469 226.964844 143.839844 C 227.507812 141.308594 228.265625 138.84375 229.234375 136.445312 C 230.203125 134.046875 231.371094 131.746094 232.738281 129.550781 C 234.105469 127.351562 235.652344 125.289062 237.375 123.355469 C 239.101562 121.425781 240.976562 119.65625 243.003906 118.050781 C 244.589844 123.460938 246.59375 128.714844 249.011719 133.808594 C 251.433594 138.898438 254.242188 143.769531 257.441406 148.414062 C 260.636719 153.058594 264.179688 157.421875 268.070312 161.503906 C 271.960938 165.582031 276.152344 169.332031 280.640625 172.742188 C 282.261719 174.046875 283.832031 175.40625 285.347656 176.828125 C 286.867188 178.25 288.328125 179.726562 289.734375 181.257812 C 291.136719 182.789062 292.484375 184.375 293.769531 186.007812 C 295.054688 187.640625 296.277344 189.320312 297.4375 191.046875 C 298.59375 192.773438 299.6875 194.539062 300.710938 196.351562 C 301.738281 198.160156 302.691406 200.003906 303.578125 201.886719 C 304.460938 203.765625 305.273438 205.679688 306.015625 207.621094 C 306.753906 209.5625 307.421875 211.53125 308.011719 213.523438 C 308.605469 215.519531 309.117188 217.53125 309.558594 219.5625 C 309.996094 221.59375 310.359375 223.640625 310.644531 225.699219 C 310.925781 227.761719 311.132812 229.828125 311.261719 231.902344 C 311.386719 233.976562 311.4375 236.054688 311.40625 238.132812 C 311.378906 240.210938 311.269531 242.289062 311.082031 244.359375 C 310.894531 246.429688 310.628906 248.488281 310.289062 250.539062 C 309.945312 252.589844 309.523438 254.625 309.027344 256.644531 C 308.53125 258.664062 307.957031 260.660156 307.308594 262.636719 C 304.101562 273.453125 299.589844 283.695312 293.773438 293.367188 C 293.460938 293.984375 293.210938 294.625 293.019531 295.289062 C 292.828125 295.953125 292.699219 296.628906 292.636719 297.316406 C 292.570312 298.003906 292.570312 298.691406 292.636719 299.382812 C 292.703125 300.070312 292.832031 300.746094 293.023438 301.410156 C 293.214844 302.074219 293.46875 302.714844 293.78125 303.328125 C 294.09375 303.945312 294.460938 304.527344 294.882812 305.074219 C 295.304688 305.621094 295.773438 306.125 296.289062 306.585938 C 296.808594 307.042969 297.363281 307.453125 297.953125 307.808594 C 298.546875 308.160156 299.167969 308.457031 299.816406 308.695312 C 300.464844 308.933594 301.132812 309.109375 301.8125 309.222656 C 302.496094 309.335938 303.183594 309.386719 303.871094 309.371094 C 304.5625 309.355469 305.246094 309.273438 305.921875 309.128906 C 306.597656 308.984375 307.253906 308.78125 307.894531 308.511719 C 308.53125 308.246094 309.136719 307.921875 309.714844 307.539062 C 310.289062 307.15625 310.824219 306.726562 311.320312 306.242188 C 311.816406 305.761719 312.261719 305.238281 312.65625 304.671875 C 319.664062 292.890625 325.058594 280.414062 328.835938 267.238281 C 329.601562 264.753906 330.269531 262.246094 330.847656 259.714844 C 331.421875 257.179688 331.902344 254.628906 332.289062 252.058594 C 332.675781 249.492188 332.960938 246.910156 333.152344 244.320312 C 333.34375 241.730469 333.4375 239.132812 333.4375 236.535156 C 333.433594 233.9375 333.332031 231.34375 333.132812 228.753906 C 332.9375 226.164062 332.640625 223.582031 332.25 221.015625 C 331.859375 218.445312 331.371094 215.898438 330.789062 213.363281 C 330.207031 210.832031 329.53125 208.328125 328.761719 205.84375 C 327.988281 203.363281 327.128906 200.914062 326.171875 198.5 C 325.21875 196.082031 324.175781 193.707031 323.042969 191.367188 C 321.910156 189.03125 320.691406 186.738281 319.386719 184.492188 C 318.082031 182.242188 316.695312 180.050781 315.226562 177.90625 C 313.757812 175.761719 312.210938 173.679688 310.585938 171.652344 C 308.960938 169.625 307.261719 167.664062 305.488281 165.761719 C 303.714844 163.863281 301.875 162.035156 299.964844 160.273438 C 298.054688 158.511719 296.078125 156.824219 294.042969 155.210938 Z M 294.042969 155.210938 " fill-opacity="1" fill-rule="nonzero"/></svg>