<svg xmlns="http://www.w3.org/2000/svg" xmlns:xlink="http://www.w3.org/1999/xlink" width="500" zoomAndPan="magnify" viewBox="0 0 375 374.999991" height="500" preserveAspectRatio="xMidYMid meet" version="1.0"><defs><clipPath id="bb27e99980"><path d="M 37.5 0 L 328.5 0 L 328.5 375 L 37.5 375 Z M 37.5 0 " clip-rule="nonzero"/></clipPath></defs><g clip-path="url(#bb27e99980)"><path fill="#ffffff" d="M 328.195312 346.671875 C 328.195312 246.605469 263.070312 165.535156 182.847656 165.535156 C 102.625 165.535156 37.5 246.605469 37.5 346.671875 C 37.5 362.273438 102.625 374.992188 182.847656 374.992188 C 263.070312 374.992188 328.195312 362.273438 328.195312 346.671875 Z M 182.847656 0.0078125 C 226.605469 0.0078125 262.050781 35.453125 262.050781 79.210938 C 262.050781 122.96875 226.605469 158.414062 182.847656 158.414062 C 139.089844 158.414062 103.644531 122.96875 103.644531 79.210938 C 103.644531 35.453125 139.089844 0.0078125 182.847656 0.0078125 Z M 182.847656 0.0078125 " fill-opacity="1" fill-rule="evenodd"/></g></svg>