<svg fill="#FFFFFF" xmlns="http://www.w3.org/2000/svg"  viewBox="0 0 32 32" width="32px" height="32px"><path d="M30.062,19.338c-0.701-1.94-1.574-4.354-1.574-7.253c0-3.509-1.427-6.712-3.636-8.159c-1.304-0.854-2.776-1.062-4.297-0.614	c-0.957-1.062-2.645-1.802-4.71-2.034C15.291,1.217,14.8,1.611,14.738,2.16c-0.054,0.485,0.257,0.91,0.707,1.05	c-0.004,0.007-0.008,0.012-0.012,0.018c1.802,0.42,1.357,3.211-0.582,2.932c-2.829-0.533-5.561,1.265-6.189,4.028	c-0.169,0.921-0.309,1.851-0.442,2.784c7.212-0.623,11.009-4.61,11.047-4.651C19.456,8.117,19.722,8,20,8c0.002,0,0.004,0,0.007,0	c0.28,0.002,0.547,0.121,0.735,0.329c1.57,1.737,2.705,2.992,4.37,3.676c0.511,0.209,0.755,0.794,0.545,1.305	c-0.209,0.512-0.797,0.759-1.305,0.545c-1.797-0.737-3.031-1.93-4.414-3.436c-1.612,1.366-5.651,4.166-12.008,4.587	c-0.399,2.803-0.86,5.605-1.933,8.266c-0.716,1.847-3.492,0.814-2.809-1.059c0.367-0.803,0.657-1.628,0.91-2.464	c0.638-1.801,1.398-4.613,1.896-9.577c0.929-4.726,4.277-6.218,6.19-6.687c0.536-0.132,0.864-0.673,0.733-1.21	c-0.132-0.536-0.674-0.864-1.21-0.733c-4.043,0.991-6.841,3.996-7.69,8.336C3.364,16.35,2.291,18.97,1.65,20.536	C1.287,21.423,1,22.123,1,23c0,2.591,3.006,4.434,8.062,4.958c0.787,0.657,1.615,1.229,2.465,1.7l0.604,0.336	c1.211,0.673,2.54,1.01,3.869,1.01s2.658-0.337,3.87-1.01l0.603-0.336c0.851-0.472,1.679-1.043,2.466-1.7	C27.994,27.434,31,25.591,31,23C31,21.933,30.565,20.731,30.062,19.338z M20.5,17c0.828,0,1.5,0.672,1.5,1.5S21.328,20,20.5,20	S19,19.328,19,18.5S19.672,17,20.5,17z M11.5,17c0.828,0,1.5,0.672,1.5,1.5S12.328,20,11.5,20S10,19.328,10,18.5S10.672,17,11.5,17z"/></svg>