<svg xmlns="http://www.w3.org/2000/svg" xmlns:xlink="http://www.w3.org/1999/xlink" width="500" zoomAndPan="magnify" viewBox="0 0 375 374.999991" height="500" preserveAspectRatio="xMidYMid meet" version="1.0"><path fill="#000000" d="M 370.59375 179.132812 C 367.265625 175.410156 287.90625 88.160156 187.5 88.160156 C 87.09375 88.160156 7.734375 175.410156 4.40625 179.132812 C 3.902344 179.695312 3.453125 180.300781 3.058594 180.945312 C 2.664062 181.59375 2.332031 182.269531 2.0625 182.976562 C 1.789062 183.683594 1.585938 184.410156 1.449219 185.152344 C 1.3125 185.898438 1.242188 186.648438 1.242188 187.40625 C 1.242188 188.164062 1.3125 188.914062 1.449219 189.660156 C 1.585938 190.402344 1.789062 191.128906 2.0625 191.835938 C 2.332031 192.542969 2.664062 193.21875 3.058594 193.867188 C 3.453125 194.511719 3.902344 195.117188 4.40625 195.679688 C 7.734375 199.402344 87.09375 286.652344 187.5 286.652344 C 287.90625 286.652344 367.265625 199.402344 370.59375 195.679688 C 371.097656 195.117188 371.546875 194.511719 371.941406 193.867188 C 372.335938 193.21875 372.667969 192.542969 372.9375 191.835938 C 373.210938 191.128906 373.414062 190.402344 373.550781 189.660156 C 373.6875 188.914062 373.757812 188.164062 373.757812 187.40625 C 373.757812 186.648438 373.6875 185.898438 373.550781 185.152344 C 373.414062 184.410156 373.210938 183.683594 372.9375 182.976562 C 372.667969 182.269531 372.335938 181.59375 371.941406 180.945312 C 371.546875 180.300781 371.097656 179.695312 370.59375 179.132812 Z M 187.5 261.839844 C 115.480469 261.839844 52.824219 208.347656 31.042969 187.40625 C 52.773438 166.441406 115.246094 112.972656 187.5 112.972656 C 259.753906 112.972656 322.175781 166.464844 343.957031 187.40625 C 322.226562 208.371094 259.753906 261.839844 187.5 261.839844 Z M 187.5 261.839844 " fill-opacity="1" fill-rule="nonzero"/><path fill="#000000" d="M 125.414062 187.40625 C 125.414062 189.4375 125.511719 191.464844 125.710938 193.484375 C 125.914062 195.507812 126.210938 197.515625 126.605469 199.507812 C 127.003906 201.5 127.496094 203.46875 128.085938 205.410156 C 128.675781 207.355469 129.363281 209.265625 130.140625 211.144531 C 130.917969 213.019531 131.785156 214.855469 132.746094 216.644531 C 133.703125 218.4375 134.746094 220.179688 135.878906 221.867188 C 137.007812 223.554688 138.21875 225.1875 139.507812 226.757812 C 140.796875 228.328125 142.160156 229.828125 143.597656 231.265625 C 145.035156 232.703125 146.542969 234.066406 148.113281 235.355469 C 149.683594 236.644531 151.316406 237.851562 153.007812 238.980469 C 154.699219 240.109375 156.441406 241.152344 158.234375 242.109375 C 160.027344 243.066406 161.863281 243.933594 163.742188 244.710938 C 165.621094 245.488281 167.53125 246.171875 169.476562 246.761719 C 171.421875 247.351562 173.394531 247.847656 175.386719 248.242188 C 177.382812 248.636719 179.390625 248.9375 181.414062 249.136719 C 183.4375 249.335938 185.464844 249.433594 187.5 249.433594 C 189.535156 249.433594 191.5625 249.335938 193.585938 249.136719 C 195.609375 248.9375 197.617188 248.636719 199.613281 248.242188 C 201.605469 247.847656 203.578125 247.351562 205.523438 246.761719 C 207.46875 246.171875 209.378906 245.488281 211.257812 244.710938 C 213.136719 243.933594 214.972656 243.066406 216.765625 242.109375 C 218.558594 241.152344 220.300781 240.109375 221.992188 238.980469 C 223.683594 237.851562 225.316406 236.644531 226.886719 235.355469 C 228.457031 234.066406 229.964844 232.703125 231.402344 231.265625 C 232.839844 229.828125 234.203125 228.328125 235.492188 226.757812 C 236.78125 225.1875 237.992188 223.554688 239.121094 221.867188 C 240.253906 220.179688 241.296875 218.4375 242.253906 216.644531 C 243.214844 214.855469 244.082031 213.019531 244.859375 211.144531 C 245.636719 209.265625 246.324219 207.355469 246.914062 205.410156 C 247.503906 203.46875 247.996094 201.5 248.394531 199.507812 C 248.789062 197.515625 249.085938 195.507812 249.289062 193.484375 C 249.488281 191.464844 249.585938 189.4375 249.585938 187.40625 C 249.585938 185.375 249.488281 183.347656 249.289062 181.328125 C 249.085938 179.304688 248.789062 177.296875 248.394531 175.304688 C 247.996094 173.3125 247.503906 171.34375 246.914062 169.402344 C 246.324219 167.457031 245.636719 165.546875 244.859375 163.667969 C 244.082031 161.792969 243.214844 159.957031 242.253906 158.167969 C 241.296875 156.375 240.253906 154.632812 239.121094 152.945312 C 237.992188 151.257812 236.78125 149.625 235.492188 148.054688 C 234.203125 146.484375 232.839844 144.984375 231.402344 143.546875 C 229.964844 142.109375 228.457031 140.746094 226.886719 139.457031 C 225.316406 138.167969 223.683594 136.960938 221.992188 135.832031 C 220.300781 134.703125 218.558594 133.660156 216.765625 132.703125 C 214.972656 131.746094 213.136719 130.878906 211.257812 130.101562 C 209.378906 129.324219 207.46875 128.640625 205.523438 128.050781 C 203.578125 127.460938 201.605469 126.964844 199.613281 126.570312 C 197.617188 126.175781 195.609375 125.875 193.585938 125.675781 C 191.5625 125.476562 189.535156 125.378906 187.5 125.378906 C 185.46875 125.382812 183.441406 125.484375 181.417969 125.683594 C 179.394531 125.886719 177.386719 126.183594 175.394531 126.582031 C 173.398438 126.980469 171.429688 127.476562 169.484375 128.066406 C 167.539062 128.65625 165.628906 129.339844 163.753906 130.121094 C 161.875 130.898438 160.039062 131.765625 158.246094 132.722656 C 156.457031 133.683594 154.714844 134.726562 153.023438 135.855469 C 151.335938 136.984375 149.703125 138.191406 148.132812 139.480469 C 146.5625 140.769531 145.058594 142.132812 143.621094 143.566406 C 142.183594 145.003906 140.820312 146.507812 139.53125 148.078125 C 138.238281 149.644531 137.03125 151.273438 135.898438 152.964844 C 134.769531 154.652344 133.726562 156.390625 132.765625 158.179688 C 131.808594 159.972656 130.9375 161.804688 130.160156 163.679688 C 129.378906 165.554688 128.695312 167.464844 128.105469 169.410156 C 127.511719 171.351562 127.015625 173.320312 126.621094 175.308594 C 126.222656 177.300781 125.921875 179.308594 125.71875 181.328125 C 125.519531 183.347656 125.417969 185.375 125.414062 187.40625 Z M 224.75 187.40625 C 224.75 188.625 224.691406 189.839844 224.574219 191.054688 C 224.453125 192.265625 224.273438 193.472656 224.035156 194.667969 C 223.796875 195.863281 223.5 197.042969 223.148438 198.210938 C 222.792969 199.375 222.382812 200.523438 221.914062 201.648438 C 221.449219 202.773438 220.929688 203.875 220.351562 204.949219 C 219.777344 206.023438 219.152344 207.070312 218.472656 208.082031 C 217.796875 209.097656 217.070312 210.074219 216.296875 211.015625 C 215.523438 211.957031 214.703125 212.859375 213.839844 213.722656 C 212.976562 214.585938 212.074219 215.402344 211.132812 216.175781 C 210.1875 216.949219 209.210938 217.671875 208.195312 218.351562 C 207.179688 219.027344 206.136719 219.652344 205.058594 220.226562 C 203.984375 220.804688 202.882812 221.324219 201.753906 221.789062 C 200.628906 222.257812 199.480469 222.667969 198.3125 223.019531 C 197.144531 223.375 195.964844 223.671875 194.765625 223.90625 C 193.570312 224.144531 192.367188 224.324219 191.152344 224.445312 C 189.9375 224.5625 188.71875 224.621094 187.5 224.621094 C 186.28125 224.621094 185.0625 224.5625 183.847656 224.445312 C 182.632812 224.324219 181.429688 224.144531 180.234375 223.90625 C 179.035156 223.671875 177.855469 223.375 176.6875 223.019531 C 175.519531 222.667969 174.371094 222.257812 173.246094 221.789062 C 172.117188 221.324219 171.015625 220.804688 169.941406 220.226562 C 168.863281 219.652344 167.820312 219.027344 166.804688 218.351562 C 165.789062 217.671875 164.8125 216.949219 163.867188 216.175781 C 162.925781 215.402344 162.023438 214.585938 161.160156 213.722656 C 160.296875 212.859375 159.476562 211.957031 158.703125 211.015625 C 157.929688 210.074219 157.203125 209.097656 156.527344 208.082031 C 155.847656 207.070312 155.222656 206.023438 154.648438 204.949219 C 154.070312 203.875 153.550781 202.773438 153.082031 201.648438 C 152.617188 200.523438 152.207031 199.375 151.851562 198.210938 C 151.5 197.042969 151.203125 195.863281 150.964844 194.667969 C 150.726562 193.472656 150.546875 192.265625 150.425781 191.054688 C 150.308594 189.839844 150.25 188.625 150.25 187.40625 C 150.25 186.1875 150.308594 184.972656 150.425781 183.757812 C 150.546875 182.546875 150.726562 181.339844 150.964844 180.144531 C 151.203125 178.949219 151.5 177.769531 151.851562 176.601562 C 152.207031 175.4375 152.617188 174.289062 153.082031 173.164062 C 153.550781 172.039062 154.070312 170.9375 154.648438 169.863281 C 155.222656 168.789062 155.847656 167.742188 156.527344 166.730469 C 157.203125 165.714844 157.929688 164.738281 158.703125 163.796875 C 159.476562 162.855469 160.296875 161.953125 161.160156 161.089844 C 162.023438 160.226562 162.925781 159.410156 163.867188 158.636719 C 164.8125 157.863281 165.789062 157.140625 166.804688 156.460938 C 167.820312 155.785156 168.863281 155.160156 169.941406 154.585938 C 171.015625 154.007812 172.117188 153.488281 173.246094 153.023438 C 174.371094 152.554688 175.519531 152.144531 176.6875 151.792969 C 177.855469 151.4375 179.035156 151.140625 180.234375 150.90625 C 181.429688 150.667969 182.632812 150.488281 183.847656 150.367188 C 185.0625 150.25 186.28125 150.191406 187.5 150.191406 C 188.71875 150.191406 189.9375 150.25 191.152344 150.367188 C 192.367188 150.488281 193.570312 150.667969 194.765625 150.90625 C 195.964844 151.140625 197.144531 151.4375 198.3125 151.792969 C 199.480469 152.144531 200.628906 152.554688 201.753906 153.023438 C 202.882812 153.488281 203.984375 154.007812 205.058594 154.585938 C 206.136719 155.160156 207.179688 155.785156 208.195312 156.460938 C 209.210938 157.140625 210.1875 157.863281 211.132812 158.636719 C 212.074219 159.410156 212.976562 160.226562 213.839844 161.089844 C 214.703125 161.953125 215.523438 162.855469 216.296875 163.796875 C 217.070312 164.738281 217.796875 165.714844 218.472656 166.730469 C 219.152344 167.742188 219.777344 168.789062 220.351562 169.863281 C 220.929688 170.9375 221.449219 172.039062 221.914062 173.164062 C 222.382812 174.289062 222.792969 175.4375 223.148438 176.601562 C 223.5 177.769531 223.796875 178.949219 224.035156 180.144531 C 224.273438 181.339844 224.453125 182.546875 224.574219 183.757812 C 224.691406 184.972656 224.75 186.1875 224.75 187.40625 Z M 224.75 187.40625 " fill-opacity="1" fill-rule="nonzero"/></svg>