<svg fill="#FFFFFF" xmlns="http://www.w3.org/2000/svg"  viewBox="0 0 24 24" width="24px" height="24px"><path d="M 15.634766 0.97851562 C 15.352905 0.99392473 15.072776 1.0291194 14.794922 1.0839844 C 13.683504 1.3034442 12.622421 1.8382203 11.761719 2.6875 C 10.189326 4.240225 9.8264078 6.4458148 10.390625 8.4316406 L 2.1347656 15.505859 L 2.1132812 15.525391 C 0.65478323 16.982643 0.65478323 19.370872 2.1132812 20.828125 C 3.5703829 22.286472 5.9580365 22.286104 7.4160156 20.828125 L 7.4355469 20.808594 L 14.648438 12.455078 C 16.575916 12.889099 18.669308 12.492758 20.167969 11.013672 C 21.889421 9.3150653 22.341945 6.8138314 21.503906 4.6992188 L 21.085938 3.6464844 L 17.234375 7.4472656 L 15.822266 6.9824219 L 15.355469 5.6035156 L 19.216797 1.7910156 L 18.134766 1.3730469 C 17.334634 1.0637201 16.480349 0.9322883 15.634766 0.97851562 z M 15.371094 2.5351562 C 15.649671 2.5473148 15.927372 2.6362788 16.210938 2.6523438 L 13.634766 5.1953125 L 14.640625 8.171875 L 17.636719 9.1582031 L 20.230469 6.5996094 C 20.304079 7.8033424 20.053306 9.01969 19.115234 9.9453125 L 19.115234 9.9472656 C 17.876917 11.170147 16.088886 11.519292 14.535156 11.001953 L 14.058594 10.841797 L 6.3535156 19.769531 C 5.4693651 20.651587 4.056072 20.650623 3.1738281 19.767578 C 2.2919046 18.886408 2.2930997 17.474864 3.171875 16.591797 L 12.044922 8.9921875 L 11.839844 8.4921875 C 11.195018 6.9146806 11.513672 5.0422989 12.816406 3.7558594 C 13.462704 3.118139 14.258215 2.7182277 15.091797 2.5546875 C 15.185012 2.5363998 15.278235 2.5311034 15.371094 2.5351562 z"/></svg>